<svg xmlns="http://www.w3.org/2000/svg" viewBox="0 0 1800 1200" width="1800" height="1200" role="img" aria-labelledby="t d">
<title id="t">Finnieston shopfronts</title>
<desc id="d">Three painted timber shopfronts in moss green, terracotta and ink side by side in the ground floor of a sandstone tenement, with stone pilasters, a cornice, an awning and a pavement.</desc>
<rect x="0" y="0" width="1800" height="326" fill="#D5C2A3"/>
<line x1="0" y1="46" x2="1800" y2="46" stroke="#242722" stroke-width="1" stroke-opacity="0.09"/>
<line x1="0" y1="92" x2="1800" y2="92" stroke="#242722" stroke-width="1" stroke-opacity="0.09"/>
<line x1="0" y1="138" x2="1800" y2="138" stroke="#242722" stroke-width="1" stroke-opacity="0.09"/>
<line x1="0" y1="184" x2="1800" y2="184" stroke="#242722" stroke-width="1" stroke-opacity="0.09"/>
<line x1="0" y1="230" x2="1800" y2="230" stroke="#242722" stroke-width="1" stroke-opacity="0.09"/>
<line x1="0" y1="276" x2="1800" y2="276" stroke="#242722" stroke-width="1" stroke-opacity="0.09"/>
<line x1="0" y1="322" x2="1800" y2="322" stroke="#242722" stroke-width="1" stroke-opacity="0.09"/>
<line x1="90" y1="0" x2="90" y2="46" stroke="#242722" stroke-width="1" stroke-opacity="0.07"/>
<line x1="180" y1="46" x2="180" y2="92" stroke="#242722" stroke-width="1" stroke-opacity="0.07"/>
<line x1="90" y1="92" x2="90" y2="138" stroke="#242722" stroke-width="1" stroke-opacity="0.07"/>
<line x1="180" y1="138" x2="180" y2="184" stroke="#242722" stroke-width="1" stroke-opacity="0.07"/>
<line x1="90" y1="184" x2="90" y2="230" stroke="#242722" stroke-width="1" stroke-opacity="0.07"/>
<line x1="180" y1="230" x2="180" y2="276" stroke="#242722" stroke-width="1" stroke-opacity="0.07"/>
<line x1="90" y1="276" x2="90" y2="322" stroke="#242722" stroke-width="1" stroke-opacity="0.07"/>
<line x1="270" y1="0" x2="270" y2="46" stroke="#242722" stroke-width="1" stroke-opacity="0.07"/>
<line x1="360" y1="46" x2="360" y2="92" stroke="#242722" stroke-width="1" stroke-opacity="0.07"/>
<line x1="270" y1="92" x2="270" y2="138" stroke="#242722" stroke-width="1" stroke-opacity="0.07"/>
<line x1="360" y1="138" x2="360" y2="184" stroke="#242722" stroke-width="1" stroke-opacity="0.07"/>
<line x1="270" y1="184" x2="270" y2="230" stroke="#242722" stroke-width="1" stroke-opacity="0.07"/>
<line x1="360" y1="230" x2="360" y2="276" stroke="#242722" stroke-width="1" stroke-opacity="0.07"/>
<line x1="270" y1="276" x2="270" y2="322" stroke="#242722" stroke-width="1" stroke-opacity="0.07"/>
<line x1="450" y1="0" x2="450" y2="46" stroke="#242722" stroke-width="1" stroke-opacity="0.07"/>
<line x1="540" y1="46" x2="540" y2="92" stroke="#242722" stroke-width="1" stroke-opacity="0.07"/>
<line x1="450" y1="92" x2="450" y2="138" stroke="#242722" stroke-width="1" stroke-opacity="0.07"/>
<line x1="540" y1="138" x2="540" y2="184" stroke="#242722" stroke-width="1" stroke-opacity="0.07"/>
<line x1="450" y1="184" x2="450" y2="230" stroke="#242722" stroke-width="1" stroke-opacity="0.07"/>
<line x1="540" y1="230" x2="540" y2="276" stroke="#242722" stroke-width="1" stroke-opacity="0.07"/>
<line x1="450" y1="276" x2="450" y2="322" stroke="#242722" stroke-width="1" stroke-opacity="0.07"/>
<line x1="630" y1="0" x2="630" y2="46" stroke="#242722" stroke-width="1" stroke-opacity="0.07"/>
<line x1="720" y1="46" x2="720" y2="92" stroke="#242722" stroke-width="1" stroke-opacity="0.07"/>
<line x1="630" y1="92" x2="630" y2="138" stroke="#242722" stroke-width="1" stroke-opacity="0.07"/>
<line x1="720" y1="138" x2="720" y2="184" stroke="#242722" stroke-width="1" stroke-opacity="0.07"/>
<line x1="630" y1="184" x2="630" y2="230" stroke="#242722" stroke-width="1" stroke-opacity="0.07"/>
<line x1="720" y1="230" x2="720" y2="276" stroke="#242722" stroke-width="1" stroke-opacity="0.07"/>
<line x1="630" y1="276" x2="630" y2="322" stroke="#242722" stroke-width="1" stroke-opacity="0.07"/>
<line x1="810" y1="0" x2="810" y2="46" stroke="#242722" stroke-width="1" stroke-opacity="0.07"/>
<line x1="900" y1="46" x2="900" y2="92" stroke="#242722" stroke-width="1" stroke-opacity="0.07"/>
<line x1="810" y1="92" x2="810" y2="138" stroke="#242722" stroke-width="1" stroke-opacity="0.07"/>
<line x1="900" y1="138" x2="900" y2="184" stroke="#242722" stroke-width="1" stroke-opacity="0.07"/>
<line x1="810" y1="184" x2="810" y2="230" stroke="#242722" stroke-width="1" stroke-opacity="0.07"/>
<line x1="900" y1="230" x2="900" y2="276" stroke="#242722" stroke-width="1" stroke-opacity="0.07"/>
<line x1="810" y1="276" x2="810" y2="322" stroke="#242722" stroke-width="1" stroke-opacity="0.07"/>
<line x1="990" y1="0" x2="990" y2="46" stroke="#242722" stroke-width="1" stroke-opacity="0.07"/>
<line x1="1080" y1="46" x2="1080" y2="92" stroke="#242722" stroke-width="1" stroke-opacity="0.07"/>
<line x1="990" y1="92" x2="990" y2="138" stroke="#242722" stroke-width="1" stroke-opacity="0.07"/>
<line x1="1080" y1="138" x2="1080" y2="184" stroke="#242722" stroke-width="1" stroke-opacity="0.07"/>
<line x1="990" y1="184" x2="990" y2="230" stroke="#242722" stroke-width="1" stroke-opacity="0.07"/>
<line x1="1080" y1="230" x2="1080" y2="276" stroke="#242722" stroke-width="1" stroke-opacity="0.07"/>
<line x1="990" y1="276" x2="990" y2="322" stroke="#242722" stroke-width="1" stroke-opacity="0.07"/>
<line x1="1170" y1="0" x2="1170" y2="46" stroke="#242722" stroke-width="1" stroke-opacity="0.07"/>
<line x1="1260" y1="46" x2="1260" y2="92" stroke="#242722" stroke-width="1" stroke-opacity="0.07"/>
<line x1="1170" y1="92" x2="1170" y2="138" stroke="#242722" stroke-width="1" stroke-opacity="0.07"/>
<line x1="1260" y1="138" x2="1260" y2="184" stroke="#242722" stroke-width="1" stroke-opacity="0.07"/>
<line x1="1170" y1="184" x2="1170" y2="230" stroke="#242722" stroke-width="1" stroke-opacity="0.07"/>
<line x1="1260" y1="230" x2="1260" y2="276" stroke="#242722" stroke-width="1" stroke-opacity="0.07"/>
<line x1="1170" y1="276" x2="1170" y2="322" stroke="#242722" stroke-width="1" stroke-opacity="0.07"/>
<line x1="1350" y1="0" x2="1350" y2="46" stroke="#242722" stroke-width="1" stroke-opacity="0.07"/>
<line x1="1440" y1="46" x2="1440" y2="92" stroke="#242722" stroke-width="1" stroke-opacity="0.07"/>
<line x1="1350" y1="92" x2="1350" y2="138" stroke="#242722" stroke-width="1" stroke-opacity="0.07"/>
<line x1="1440" y1="138" x2="1440" y2="184" stroke="#242722" stroke-width="1" stroke-opacity="0.07"/>
<line x1="1350" y1="184" x2="1350" y2="230" stroke="#242722" stroke-width="1" stroke-opacity="0.07"/>
<line x1="1440" y1="230" x2="1440" y2="276" stroke="#242722" stroke-width="1" stroke-opacity="0.07"/>
<line x1="1350" y1="276" x2="1350" y2="322" stroke="#242722" stroke-width="1" stroke-opacity="0.07"/>
<line x1="1530" y1="0" x2="1530" y2="46" stroke="#242722" stroke-width="1" stroke-opacity="0.07"/>
<line x1="1620" y1="46" x2="1620" y2="92" stroke="#242722" stroke-width="1" stroke-opacity="0.07"/>
<line x1="1530" y1="92" x2="1530" y2="138" stroke="#242722" stroke-width="1" stroke-opacity="0.07"/>
<line x1="1620" y1="138" x2="1620" y2="184" stroke="#242722" stroke-width="1" stroke-opacity="0.07"/>
<line x1="1530" y1="184" x2="1530" y2="230" stroke="#242722" stroke-width="1" stroke-opacity="0.07"/>
<line x1="1620" y1="230" x2="1620" y2="276" stroke="#242722" stroke-width="1" stroke-opacity="0.07"/>
<line x1="1530" y1="276" x2="1530" y2="322" stroke="#242722" stroke-width="1" stroke-opacity="0.07"/>
<line x1="1710" y1="0" x2="1710" y2="46" stroke="#242722" stroke-width="1" stroke-opacity="0.07"/>
<line x1="1800" y1="46" x2="1800" y2="92" stroke="#242722" stroke-width="1" stroke-opacity="0.07"/>
<line x1="1710" y1="92" x2="1710" y2="138" stroke="#242722" stroke-width="1" stroke-opacity="0.07"/>
<line x1="1800" y1="138" x2="1800" y2="184" stroke="#242722" stroke-width="1" stroke-opacity="0.07"/>
<line x1="1710" y1="184" x2="1710" y2="230" stroke="#242722" stroke-width="1" stroke-opacity="0.07"/>
<line x1="1800" y1="230" x2="1800" y2="276" stroke="#242722" stroke-width="1" stroke-opacity="0.07"/>
<line x1="1710" y1="276" x2="1710" y2="322" stroke="#242722" stroke-width="1" stroke-opacity="0.07"/>
<rect x="150" y="-120" width="170" height="340" fill="#242722" fill-opacity="0.22"/>
<rect x="160" y="-110" width="150" height="330" fill="#242722" fill-opacity="0.82"/>
<rect x="163" y="-107" width="144" height="138.6" fill="#F3F0E8" fill-opacity="0.1"/>
<rect x="160" y="53" width="150" height="4" fill="#F3F0E8" fill-opacity="0.85"/>
<rect x="233.5" y="-110" width="3" height="330" fill="#F3F0E8" fill-opacity="0.65"/>
<rect x="146" y="220" width="178" height="7" fill="#D5C2A3"/>
<rect x="146" y="220" width="178" height="7" fill="#F3F0E8" fill-opacity="0.35"/>
<rect x="146" y="227" width="178" height="6" fill="#242722" fill-opacity="0.18"/>
<rect x="490" y="-120" width="170" height="340" fill="#242722" fill-opacity="0.22"/>
<rect x="500" y="-110" width="150" height="330" fill="#242722" fill-opacity="0.82"/>
<rect x="503" y="-107" width="144" height="138.6" fill="#F3F0E8" fill-opacity="0.1"/>
<rect x="500" y="53" width="150" height="4" fill="#F3F0E8" fill-opacity="0.85"/>
<rect x="573.5" y="-110" width="3" height="330" fill="#F3F0E8" fill-opacity="0.65"/>
<rect x="486" y="220" width="178" height="7" fill="#D5C2A3"/>
<rect x="486" y="220" width="178" height="7" fill="#F3F0E8" fill-opacity="0.35"/>
<rect x="486" y="227" width="178" height="6" fill="#242722" fill-opacity="0.18"/>
<rect x="830" y="-120" width="170" height="340" fill="#242722" fill-opacity="0.22"/>
<rect x="840" y="-110" width="150" height="330" fill="#242722" fill-opacity="0.82"/>
<rect x="843" y="-107" width="144" height="138.6" fill="#F3F0E8" fill-opacity="0.1"/>
<rect x="840" y="53" width="150" height="4" fill="#F3F0E8" fill-opacity="0.85"/>
<rect x="913.5" y="-110" width="3" height="330" fill="#F3F0E8" fill-opacity="0.65"/>
<rect x="826" y="220" width="178" height="7" fill="#D5C2A3"/>
<rect x="826" y="220" width="178" height="7" fill="#F3F0E8" fill-opacity="0.35"/>
<rect x="826" y="227" width="178" height="6" fill="#242722" fill-opacity="0.18"/>
<rect x="1160" y="-120" width="170" height="340" fill="#242722" fill-opacity="0.22"/>
<rect x="1170" y="-110" width="150" height="330" fill="#242722" fill-opacity="0.82"/>
<rect x="1173" y="-107" width="144" height="138.6" fill="#F3F0E8" fill-opacity="0.1"/>
<rect x="1170" y="53" width="150" height="4" fill="#F3F0E8" fill-opacity="0.85"/>
<rect x="1243.5" y="-110" width="3" height="330" fill="#F3F0E8" fill-opacity="0.65"/>
<rect x="1156" y="220" width="178" height="7" fill="#D5C2A3"/>
<rect x="1156" y="220" width="178" height="7" fill="#F3F0E8" fill-opacity="0.35"/>
<rect x="1156" y="227" width="178" height="6" fill="#242722" fill-opacity="0.18"/>
<rect x="1490" y="-120" width="170" height="340" fill="#242722" fill-opacity="0.22"/>
<rect x="1500" y="-110" width="150" height="330" fill="#242722" fill-opacity="0.82"/>
<rect x="1503" y="-107" width="144" height="138.6" fill="#F3F0E8" fill-opacity="0.1"/>
<rect x="1500" y="53" width="150" height="4" fill="#F3F0E8" fill-opacity="0.85"/>
<rect x="1573.5" y="-110" width="3" height="330" fill="#F3F0E8" fill-opacity="0.65"/>
<rect x="1486" y="220" width="178" height="7" fill="#D5C2A3"/>
<rect x="1486" y="220" width="178" height="7" fill="#F3F0E8" fill-opacity="0.35"/>
<rect x="1486" y="227" width="178" height="6" fill="#242722" fill-opacity="0.18"/>
<rect x="0" y="258" width="1800" height="10" fill="#D5C2A3"/>
<rect x="0" y="258" width="1800" height="10" fill="#F3F0E8" fill-opacity="0.25"/>
<rect x="0" y="268" width="1800" height="6" fill="#242722" fill-opacity="0.12"/>
<rect x="0" y="314" width="1800" height="12" fill="#D5C2A3"/>
<rect x="0" y="314" width="1800" height="12" fill="#242722" fill-opacity="0.06"/>
<rect x="0" y="326" width="1800" height="30" fill="#D5C2A3"/>
<rect x="0" y="326" width="1800" height="30" fill="#F3F0E8" fill-opacity="0.3"/>
<rect x="0" y="356" width="1800" height="21" fill="#242722" fill-opacity="0.16"/>
<rect x="0" y="304" width="1800" height="10" fill="#D5C2A3"/>
<rect x="0" y="304" width="1800" height="10" fill="#F3F0E8" fill-opacity="0.4"/>
<rect x="0" y="314" width="1800" height="4" fill="#242722" fill-opacity="0.14"/>
<rect x="0" y="356" width="1800" height="6" fill="#242722" fill-opacity="0.3"/>
<rect x="0" y="364" width="1800" height="668" fill="#C8C2B6"/>
<rect x="46" y="364" width="536" height="668" fill="#405448"/>
<rect x="66" y="477.56" width="496" height="447.56" fill="#242722" fill-opacity="0.85"/>
<rect x="70" y="481.56" width="488" height="201.4" fill="#F3F0E8" fill-opacity="0.12"/>
<rect x="66" y="576.02" width="496" height="4" fill="#405448"/>
<rect x="46" y="477.56" width="536" height="6" fill="#242722" fill-opacity="0.25"/>
<rect x="46" y="364" width="536" height="113.56" fill="#F3F0E8" fill-opacity="0.08"/>
<rect x="66" y="477.56" width="496" height="447.56" fill="#C8C2B6" fill-opacity="0.06"/>
<rect x="62" y="378" width="504" height="85.56" fill="#405448"/>
<rect x="62" y="378" width="504" height="85.56" fill="#F3F0E8" fill-opacity="0.05"/>
<line x1="62" y1="378" x2="566" y2="378" stroke="#F3F0E8" stroke-width="2" stroke-opacity="0.18"/>
<line x1="62" y1="463.56" x2="566" y2="463.56" stroke="#242722" stroke-width="2" stroke-opacity="0.35"/>
<rect x="76" y="941.12" width="145.33" height="74.88" fill="#242722" fill-opacity="0.12"/>
<rect x="76" y="941.12" width="145.33" height="4" fill="#F3F0E8" fill-opacity="0.2"/>
<rect x="241.33" y="941.12" width="145.33" height="74.88" fill="#242722" fill-opacity="0.12"/>
<rect x="241.33" y="941.12" width="145.33" height="4" fill="#F3F0E8" fill-opacity="0.2"/>
<rect x="406.67" y="941.12" width="145.33" height="74.88" fill="#242722" fill-opacity="0.12"/>
<rect x="406.67" y="941.12" width="145.33" height="4" fill="#F3F0E8" fill-opacity="0.2"/>
<rect x="428" y="477.56" width="140" height="554.44" fill="#405448"/>
<rect x="434" y="582.02" width="128" height="449.98" fill="#405448"/>
<rect x="434" y="582.02" width="128" height="449.98" fill="#242722" fill-opacity="0.18"/>
<rect x="448" y="596.02" width="100" height="150" fill="#242722" fill-opacity="0.75"/>
<rect x="448" y="596.02" width="100" height="150" fill="#C8C2B6" fill-opacity="0.06"/>
<rect x="451" y="599.02" width="94" height="56" fill="#F3F0E8" fill-opacity="0.12"/>
<rect x="448" y="912" width="100" height="80" fill="#242722" fill-opacity="0.14"/>
<rect x="532" y="776.02" width="8" height="8" fill="#F3F0E8" fill-opacity="0.6"/>
<rect x="434" y="485.56" width="128" height="84.46" fill="#242722" fill-opacity="0.8"/>
<rect x="434" y="485.56" width="128" height="84.46" fill="#C8C2B6" fill-opacity="0.06"/>
<rect x="437" y="488.56" width="122" height="42.23" fill="#F3F0E8" fill-opacity="0.12"/>
<rect x="243" y="477.56" width="8" height="447.56" fill="#405448"/>
<rect x="243" y="477.56" width="8" height="447.56" fill="#242722" fill-opacity="0.15"/>
<rect x="66" y="835.12" width="496" height="3" fill="#F3F0E8" fill-opacity="0.14"/>
<rect x="46" y="477.56" width="536" height="10" fill="#242722" fill-opacity="0.18"/>
<rect x="628" y="364" width="590" height="668" fill="#8C4F3D"/>
<rect x="648" y="517.64" width="550" height="407.48" fill="#242722" fill-opacity="0.85"/>
<rect x="652" y="521.64" width="542" height="183.37" fill="#F3F0E8" fill-opacity="0.12"/>
<rect x="648" y="607.29" width="550" height="4" fill="#8C4F3D"/>
<rect x="628" y="517.64" width="590" height="6" fill="#242722" fill-opacity="0.25"/>
<rect x="628" y="364" width="590" height="153.64" fill="#F3F0E8" fill-opacity="0.08"/>
<rect x="648" y="517.64" width="550" height="407.48" fill="#C8C2B6" fill-opacity="0.06"/>
<rect x="644" y="378" width="558" height="125.64" fill="#8C4F3D"/>
<rect x="644" y="378" width="558" height="125.64" fill="#F3F0E8" fill-opacity="0.05"/>
<line x1="644" y1="378" x2="1202" y2="378" stroke="#F3F0E8" stroke-width="2" stroke-opacity="0.18"/>
<line x1="644" y1="503.64" x2="1202" y2="503.64" stroke="#242722" stroke-width="2" stroke-opacity="0.35"/>
<rect x="658" y="941.12" width="117.5" height="74.88" fill="#242722" fill-opacity="0.12"/>
<rect x="658" y="941.12" width="117.5" height="4" fill="#F3F0E8" fill-opacity="0.2"/>
<rect x="795.5" y="941.12" width="117.5" height="74.88" fill="#242722" fill-opacity="0.12"/>
<rect x="795.5" y="941.12" width="117.5" height="4" fill="#F3F0E8" fill-opacity="0.2"/>
<rect x="933" y="941.12" width="117.5" height="74.88" fill="#242722" fill-opacity="0.12"/>
<rect x="933" y="941.12" width="117.5" height="4" fill="#F3F0E8" fill-opacity="0.2"/>
<rect x="1070.5" y="941.12" width="117.5" height="74.88" fill="#242722" fill-opacity="0.12"/>
<rect x="1070.5" y="941.12" width="117.5" height="4" fill="#F3F0E8" fill-opacity="0.2"/>
<rect x="1010" y="517.64" width="188" height="514.36" fill="#8C4F3D"/>
<rect x="1030" y="517.64" width="148" height="514.36" fill="#242722" fill-opacity="0.55"/>
<rect x="1030" y="517.64" width="148" height="514.36" fill="#242722" fill-opacity="0.2"/>
<rect x="1030" y="517.64" width="26" height="514.36" fill="#242722" fill-opacity="0.25"/>
<rect x="1158" y="517.64" width="20" height="514.36" fill="#F3F0E8" fill-opacity="0.06"/>
<rect x="1056" y="613.29" width="96" height="418.71" fill="#8C4F3D" fill-opacity="0.9"/>
<rect x="1056" y="613.29" width="96" height="418.71" fill="#242722" fill-opacity="0.25"/>
<rect x="1102.5" y="613.29" width="3" height="418.71" fill="#F3F0E8" fill-opacity="0.25"/>
<rect x="1070" y="627.29" width="68" height="120" fill="#242722" fill-opacity="0.6"/>
<rect x="1073" y="630.29" width="62" height="44" fill="#F3F0E8" fill-opacity="0.12"/>
<rect x="1056" y="525.64" width="96" height="75.65" fill="#242722" fill-opacity="0.5"/>
<rect x="1030" y="1022" width="148" height="10" fill="#C8C2B6"/>
<rect x="1030" y="1022" width="148" height="10" fill="#242722" fill-opacity="0.1"/>
<rect x="648" y="835.12" width="550" height="3" fill="#F3F0E8" fill-opacity="0.14"/>
<rect x="628" y="517.64" width="590" height="10" fill="#242722" fill-opacity="0.18"/>
<rect x="1264" y="364" width="490" height="668" fill="#242722"/>
<rect x="1284" y="497.6" width="450" height="427.52" fill="#242722" fill-opacity="0.85"/>
<rect x="1288" y="501.6" width="442" height="192.38" fill="#F3F0E8" fill-opacity="0.12"/>
<rect x="1284" y="591.65" width="450" height="4" fill="#242722"/>
<rect x="1264" y="497.6" width="490" height="6" fill="#242722" fill-opacity="0.25"/>
<rect x="1264" y="364" width="490" height="133.6" fill="#F3F0E8" fill-opacity="0.08"/>
<rect x="1284" y="497.6" width="450" height="427.52" fill="#C8C2B6" fill-opacity="0.2"/>
<rect x="1280" y="378" width="458" height="105.6" fill="#242722"/>
<rect x="1280" y="378" width="458" height="105.6" fill="#F3F0E8" fill-opacity="0.05"/>
<line x1="1280" y1="378" x2="1738" y2="378" stroke="#F3F0E8" stroke-width="2" stroke-opacity="0.18"/>
<line x1="1280" y1="483.6" x2="1738" y2="483.6" stroke="#242722" stroke-width="2" stroke-opacity="0.35"/>
<rect x="1294" y="941.12" width="130" height="74.88" fill="#242722" fill-opacity="0.12"/>
<rect x="1294" y="941.12" width="130" height="4" fill="#F3F0E8" fill-opacity="0.2"/>
<rect x="1444" y="941.12" width="130" height="74.88" fill="#242722" fill-opacity="0.12"/>
<rect x="1444" y="941.12" width="130" height="4" fill="#F3F0E8" fill-opacity="0.2"/>
<rect x="1594" y="941.12" width="130" height="74.88" fill="#242722" fill-opacity="0.12"/>
<rect x="1594" y="941.12" width="130" height="4" fill="#F3F0E8" fill-opacity="0.2"/>
<rect x="1278" y="497.6" width="140" height="534.4" fill="#242722"/>
<rect x="1284" y="597.65" width="128" height="434.35" fill="#242722"/>
<rect x="1284" y="597.65" width="128" height="434.35" fill="#242722" fill-opacity="0.18"/>
<rect x="1298" y="611.65" width="100" height="150" fill="#242722" fill-opacity="0.75"/>
<rect x="1298" y="611.65" width="100" height="150" fill="#C8C2B6" fill-opacity="0.2"/>
<rect x="1301" y="614.65" width="94" height="56" fill="#F3F0E8" fill-opacity="0.12"/>
<rect x="1298" y="912" width="100" height="80" fill="#242722" fill-opacity="0.14"/>
<rect x="1382" y="791.65" width="8" height="8" fill="#F3F0E8" fill-opacity="0.6"/>
<rect x="1284" y="505.6" width="128" height="80.05" fill="#242722" fill-opacity="0.8"/>
<rect x="1284" y="505.6" width="128" height="80.05" fill="#C8C2B6" fill-opacity="0.2"/>
<rect x="1287" y="508.6" width="122" height="40.03" fill="#F3F0E8" fill-opacity="0.12"/>
<rect x="1572" y="497.6" width="8" height="427.52" fill="#242722"/>
<rect x="1572" y="497.6" width="8" height="427.52" fill="#242722" fill-opacity="0.15"/>
<rect x="1284" y="835.12" width="450" height="3" fill="#F3F0E8" fill-opacity="0.14"/>
<rect x="1264" y="497.6" width="490" height="10" fill="#242722" fill-opacity="0.18"/>
<rect x="0" y="364" width="46" height="668" fill="#D5C2A3"/>
<rect x="0" y="364" width="46" height="668" fill="#F3F0E8" fill-opacity="0.12"/>
<rect x="38" y="364" width="8" height="668" fill="#242722" fill-opacity="0.18"/>
<rect x="0" y="364" width="6" height="668" fill="#F3F0E8" fill-opacity="0.25"/>
<rect x="-4" y="364" width="54" height="34" fill="#D5C2A3"/>
<rect x="-4" y="364" width="54" height="34" fill="#F3F0E8" fill-opacity="0.2"/>
<rect x="-4" y="398" width="54" height="8" fill="#242722" fill-opacity="0.2"/>
<rect x="-4" y="972" width="54" height="60" fill="#D5C2A3"/>
<rect x="-4" y="972" width="54" height="60" fill="#242722" fill-opacity="0.1"/>
<rect x="-4" y="972" width="54" height="5" fill="#F3F0E8" fill-opacity="0.25"/>
<polygon points="6,356 40,356 34,394 12,394" fill="#D5C2A3"/>
<rect x="6" y="356" width="34" height="38" fill="#242722" fill-opacity="0.14"/>
<rect x="582" y="364" width="46" height="668" fill="#D5C2A3"/>
<rect x="582" y="364" width="46" height="668" fill="#F3F0E8" fill-opacity="0.12"/>
<rect x="620" y="364" width="8" height="668" fill="#242722" fill-opacity="0.18"/>
<rect x="582" y="364" width="6" height="668" fill="#F3F0E8" fill-opacity="0.25"/>
<rect x="578" y="364" width="54" height="34" fill="#D5C2A3"/>
<rect x="578" y="364" width="54" height="34" fill="#F3F0E8" fill-opacity="0.2"/>
<rect x="578" y="398" width="54" height="8" fill="#242722" fill-opacity="0.2"/>
<rect x="578" y="972" width="54" height="60" fill="#D5C2A3"/>
<rect x="578" y="972" width="54" height="60" fill="#242722" fill-opacity="0.1"/>
<rect x="578" y="972" width="54" height="5" fill="#F3F0E8" fill-opacity="0.25"/>
<polygon points="588,356 622,356 616,394 594,394" fill="#D5C2A3"/>
<rect x="588" y="356" width="34" height="38" fill="#242722" fill-opacity="0.14"/>
<rect x="1218" y="364" width="46" height="668" fill="#D5C2A3"/>
<rect x="1218" y="364" width="46" height="668" fill="#F3F0E8" fill-opacity="0.12"/>
<rect x="1256" y="364" width="8" height="668" fill="#242722" fill-opacity="0.18"/>
<rect x="1218" y="364" width="6" height="668" fill="#F3F0E8" fill-opacity="0.25"/>
<rect x="1214" y="364" width="54" height="34" fill="#D5C2A3"/>
<rect x="1214" y="364" width="54" height="34" fill="#F3F0E8" fill-opacity="0.2"/>
<rect x="1214" y="398" width="54" height="8" fill="#242722" fill-opacity="0.2"/>
<rect x="1214" y="972" width="54" height="60" fill="#D5C2A3"/>
<rect x="1214" y="972" width="54" height="60" fill="#242722" fill-opacity="0.1"/>
<rect x="1214" y="972" width="54" height="5" fill="#F3F0E8" fill-opacity="0.25"/>
<polygon points="1224,356 1258,356 1252,394 1230,394" fill="#D5C2A3"/>
<rect x="1224" y="356" width="34" height="38" fill="#242722" fill-opacity="0.14"/>
<rect x="1754" y="364" width="46" height="668" fill="#D5C2A3"/>
<rect x="1754" y="364" width="46" height="668" fill="#F3F0E8" fill-opacity="0.12"/>
<rect x="1792" y="364" width="8" height="668" fill="#242722" fill-opacity="0.18"/>
<rect x="1754" y="364" width="6" height="668" fill="#F3F0E8" fill-opacity="0.25"/>
<rect x="1750" y="364" width="54" height="34" fill="#D5C2A3"/>
<rect x="1750" y="364" width="54" height="34" fill="#F3F0E8" fill-opacity="0.2"/>
<rect x="1750" y="398" width="54" height="8" fill="#242722" fill-opacity="0.2"/>
<rect x="1750" y="972" width="54" height="60" fill="#D5C2A3"/>
<rect x="1750" y="972" width="54" height="60" fill="#242722" fill-opacity="0.1"/>
<rect x="1750" y="972" width="54" height="5" fill="#F3F0E8" fill-opacity="0.25"/>
<polygon points="1760,356 1794,356 1788,394 1766,394" fill="#D5C2A3"/>
<rect x="1760" y="356" width="34" height="38" fill="#242722" fill-opacity="0.14"/>
<polygon points="52,481.56 576,481.56 548,551.56 80,551.56" fill="#405448"/>
<rect x="52" y="481.56" width="524" height="70" fill="#242722" fill-opacity="0.1"/>
<rect x="52" y="481.56" width="524" height="8" fill="#F3F0E8" fill-opacity="0.2"/>
<polygon points="80,551.56 119,551.56 99.5,573.56" fill="#405448"/>
<polygon points="119,551.56 158,551.56 138.5,573.56" fill="#405448"/>
<polygon points="158,551.56 197,551.56 177.5,573.56" fill="#405448"/>
<polygon points="197,551.56 236,551.56 216.5,573.56" fill="#405448"/>
<polygon points="236,551.56 275,551.56 255.5,573.56" fill="#405448"/>
<polygon points="275,551.56 314,551.56 294.5,573.56" fill="#405448"/>
<polygon points="314,551.56 353,551.56 333.5,573.56" fill="#405448"/>
<polygon points="353,551.56 392,551.56 372.5,573.56" fill="#405448"/>
<polygon points="392,551.56 431,551.56 411.5,573.56" fill="#405448"/>
<polygon points="431,551.56 470,551.56 450.5,573.56" fill="#405448"/>
<polygon points="470,551.56 509,551.56 489.5,573.56" fill="#405448"/>
<polygon points="509,551.56 548,551.56 528.5,573.56" fill="#405448"/>
<rect x="66" y="551.56" width="496" height="60" fill="#242722" fill-opacity="0.16"/>
<line x1="80" y1="551.56" x2="58" y2="483.56" stroke="#242722" stroke-width="2" stroke-opacity="0.35"/>
<line x1="548" y1="551.56" x2="570" y2="483.56" stroke="#242722" stroke-width="2" stroke-opacity="0.35"/>
<line x1="605" y1="414" x2="755" y2="414" stroke="#242722" stroke-width="4" stroke-opacity="0.85"/>
<line x1="605" y1="494" x2="705" y2="414" stroke="#242722" stroke-width="3" stroke-opacity="0.85"/>
<line x1="725" y1="414" x2="725" y2="438" stroke="#242722" stroke-width="3" stroke-opacity="0.85"/>
<circle cx="725" cy="444" r="5" fill="#242722" fill-opacity="0.85"/>
<rect x="683" y="448" width="84" height="70" fill="#242722" fill-opacity="0.85"/>
<rect x="687" y="452" width="76" height="62" fill="#405448"/>
<rect x="687" y="452" width="76" height="20" fill="#F3F0E8" fill-opacity="0.12"/>
<rect x="0" y="1032" width="1800" height="168" fill="#C8C2B6"/>
<rect x="0" y="1032" width="1800" height="168" fill="#242722" fill-opacity="0.06"/>
<rect x="0" y="1142" width="1800" height="2" fill="#242722" fill-opacity="0.1"/>
<line x1="60" y1="1032" x2="100" y2="1200" stroke="#242722" stroke-width="1" stroke-opacity="0.08"/>
<line x1="240" y1="1032" x2="280" y2="1200" stroke="#242722" stroke-width="1" stroke-opacity="0.08"/>
<line x1="420" y1="1032" x2="460" y2="1200" stroke="#242722" stroke-width="1" stroke-opacity="0.08"/>
<line x1="600" y1="1032" x2="640" y2="1200" stroke="#242722" stroke-width="1" stroke-opacity="0.08"/>
<line x1="780" y1="1032" x2="820" y2="1200" stroke="#242722" stroke-width="1" stroke-opacity="0.08"/>
<line x1="960" y1="1032" x2="1000" y2="1200" stroke="#242722" stroke-width="1" stroke-opacity="0.08"/>
<line x1="1140" y1="1032" x2="1180" y2="1200" stroke="#242722" stroke-width="1" stroke-opacity="0.08"/>
<line x1="1320" y1="1032" x2="1360" y2="1200" stroke="#242722" stroke-width="1" stroke-opacity="0.08"/>
<line x1="1500" y1="1032" x2="1540" y2="1200" stroke="#242722" stroke-width="1" stroke-opacity="0.08"/>
<line x1="1680" y1="1032" x2="1720" y2="1200" stroke="#242722" stroke-width="1" stroke-opacity="0.08"/>
<line x1="0" y1="1092" x2="1800" y2="1092" stroke="#242722" stroke-width="1" stroke-opacity="0.08"/>
<rect x="0" y="1032" width="1800" height="14" fill="#242722" fill-opacity="0.14"/>
<rect x="0" y="1166" width="1800" height="34" fill="#C8C2B6"/>
<rect x="0" y="1166" width="1800" height="34" fill="#F3F0E8" fill-opacity="0.35"/>
<rect x="0" y="1166" width="1800" height="4" fill="#242722" fill-opacity="0.22"/>
<rect x="0" y="1192" width="1800" height="8" fill="#242722" fill-opacity="0.25"/>
<rect x="0" y="0" width="1800" height="326" fill="#F3F0E8" fill-opacity="0.08"/>
</svg>
