<svg xmlns="http://www.w3.org/2000/svg" viewBox="0 0 1600 1000" width="1600" height="1000" role="img" aria-labelledby="t d">
<title id="t">Garden room elevation</title>
<desc id="d">Rear elevation of a two-storey red sandstone villa with a slate roof and chimney, joined by a narrow glazed link to a new single-storey timber-clad garden room with a wide sliding glass door, a flat roof with a rooflight, a stone terrace and a lawn under an overcast sky.</desc>
<rect x="0" y="0" width="1600" height="1000" fill="#F3F0E8"/>
<rect x="0" y="780" width="1600" height="40" fill="#C8C2B6" fill-opacity="0.30000000000000004"/>
<rect x="0" y="740" width="1600" height="40" fill="#C8C2B6" fill-opacity="0.25"/>
<rect x="0" y="700" width="1600" height="40" fill="#C8C2B6" fill-opacity="0.2"/>
<rect x="0" y="660" width="1600" height="40" fill="#C8C2B6" fill-opacity="0.15000000000000002"/>
<rect x="0" y="620" width="1600" height="40" fill="#C8C2B6" fill-opacity="0.1"/>
<rect x="0" y="580" width="1600" height="40" fill="#C8C2B6" fill-opacity="0.05"/>
<circle cx="90" cy="330" r="150" fill="#405448" fill-opacity="0.3"/>
<circle cx="230" cy="400" r="110" fill="#405448" fill-opacity="0.26"/>
<circle cx="20" cy="470" r="120" fill="#405448" fill-opacity="0.32"/>
<rect x="0" y="420" width="200" height="360" fill="#405448" fill-opacity="0.34"/>
<circle cx="1540" cy="470" r="90" fill="#405448" fill-opacity="0.34"/>
<circle cx="1610" cy="400" r="100" fill="#405448" fill-opacity="0.28"/>
<rect x="1480" y="500" width="120" height="280" fill="#405448" fill-opacity="0.34"/>
<rect x="600" y="195" width="56" height="120" fill="#D5C2A3"/>
<rect x="600" y="195" width="56" height="120" fill="#242722" fill-opacity="0.08"/>
<rect x="596" y="195" width="64" height="8" fill="#D5C2A3"/>
<rect x="596" y="195" width="64" height="8" fill="#F3F0E8" fill-opacity="0.3"/>
<rect x="611.2" y="169" width="11.2" height="26" fill="#8C4F3D" fill-opacity="0.9"/>
<rect x="633.6" y="169" width="11.2" height="26" fill="#8C4F3D" fill-opacity="0.9"/>
<polygon points="72,462 798,462 574,282 306,282" fill="#242722" fill-opacity="0.6"/>
<line x1="290.4" y1="294" x2="588.93" y2="294" stroke="#F3F0E8" stroke-width="1" stroke-opacity="0.12"/>
<line x1="274.8" y1="306" x2="603.87" y2="306" stroke="#F3F0E8" stroke-width="1" stroke-opacity="0.12"/>
<line x1="259.2" y1="318" x2="618.8" y2="318" stroke="#F3F0E8" stroke-width="1" stroke-opacity="0.12"/>
<line x1="243.6" y1="330" x2="633.73" y2="330" stroke="#F3F0E8" stroke-width="1" stroke-opacity="0.12"/>
<line x1="228" y1="342" x2="648.67" y2="342" stroke="#F3F0E8" stroke-width="1" stroke-opacity="0.12"/>
<line x1="212.4" y1="354" x2="663.6" y2="354" stroke="#F3F0E8" stroke-width="1" stroke-opacity="0.12"/>
<line x1="196.8" y1="366" x2="678.53" y2="366" stroke="#F3F0E8" stroke-width="1" stroke-opacity="0.12"/>
<line x1="181.2" y1="378" x2="693.47" y2="378" stroke="#F3F0E8" stroke-width="1" stroke-opacity="0.12"/>
<line x1="165.6" y1="390" x2="708.4" y2="390" stroke="#F3F0E8" stroke-width="1" stroke-opacity="0.12"/>
<line x1="150" y1="402" x2="723.33" y2="402" stroke="#F3F0E8" stroke-width="1" stroke-opacity="0.12"/>
<line x1="134.4" y1="414" x2="738.27" y2="414" stroke="#F3F0E8" stroke-width="1" stroke-opacity="0.12"/>
<line x1="118.8" y1="426" x2="753.2" y2="426" stroke="#F3F0E8" stroke-width="1" stroke-opacity="0.12"/>
<line x1="103.2" y1="438" x2="768.13" y2="438" stroke="#F3F0E8" stroke-width="1" stroke-opacity="0.12"/>
<line x1="87.6" y1="450" x2="783.07" y2="450" stroke="#F3F0E8" stroke-width="1" stroke-opacity="0.12"/>
<rect x="306" y="282" width="268" height="4" fill="#F3F0E8" fill-opacity="0.35"/>
<line x1="72" y1="462" x2="306" y2="282" stroke="#F3F0E8" stroke-width="3" stroke-opacity="0.35"/>
<line x1="798" y1="462" x2="574" y2="282" stroke="#F3F0E8" stroke-width="3" stroke-opacity="0.35"/>
<rect x="72" y="456" width="726" height="10" fill="#242722" fill-opacity="0.75"/>
<rect x="100" y="466" width="670" height="314" fill="#D5C2A3"/>
<line x1="100" y1="496" x2="770" y2="496" stroke="#242722" stroke-width="1" stroke-opacity="0.09"/>
<line x1="100" y1="526" x2="770" y2="526" stroke="#242722" stroke-width="1" stroke-opacity="0.09"/>
<line x1="100" y1="556" x2="770" y2="556" stroke="#242722" stroke-width="1" stroke-opacity="0.09"/>
<line x1="100" y1="586" x2="770" y2="586" stroke="#242722" stroke-width="1" stroke-opacity="0.09"/>
<line x1="100" y1="616" x2="770" y2="616" stroke="#242722" stroke-width="1" stroke-opacity="0.09"/>
<line x1="100" y1="646" x2="770" y2="646" stroke="#242722" stroke-width="1" stroke-opacity="0.09"/>
<line x1="100" y1="676" x2="770" y2="676" stroke="#242722" stroke-width="1" stroke-opacity="0.09"/>
<line x1="100" y1="706" x2="770" y2="706" stroke="#242722" stroke-width="1" stroke-opacity="0.09"/>
<line x1="100" y1="736" x2="770" y2="736" stroke="#242722" stroke-width="1" stroke-opacity="0.09"/>
<line x1="100" y1="766" x2="770" y2="766" stroke="#242722" stroke-width="1" stroke-opacity="0.09"/>
<rect x="100" y="466" width="670" height="26" fill="#242722" fill-opacity="0.2"/>
<rect x="100" y="616" width="670" height="10" fill="#D5C2A3"/>
<rect x="100" y="616" width="670" height="10" fill="#F3F0E8" fill-opacity="0.3"/>
<rect x="100" y="626" width="670" height="7" fill="#242722" fill-opacity="0.16"/>
<rect x="100" y="466" width="34" height="30" fill="#D5C2A3"/>
<rect x="100" y="466" width="34" height="30" fill="#F3F0E8" fill-opacity="0.22"/>
<line x1="134" y1="466" x2="134" y2="496" stroke="#242722" stroke-width="1" stroke-opacity="0.16"/>
<rect x="736" y="466" width="34" height="30" fill="#D5C2A3"/>
<rect x="736" y="466" width="34" height="30" fill="#F3F0E8" fill-opacity="0.22"/>
<line x1="736" y1="466" x2="736" y2="496" stroke="#242722" stroke-width="1" stroke-opacity="0.16"/>
<rect x="100" y="496" width="22" height="30" fill="#D5C2A3"/>
<rect x="100" y="496" width="22" height="30" fill="#F3F0E8" fill-opacity="0.22"/>
<line x1="122" y1="496" x2="122" y2="526" stroke="#242722" stroke-width="1" stroke-opacity="0.16"/>
<rect x="748" y="496" width="22" height="30" fill="#D5C2A3"/>
<rect x="748" y="496" width="22" height="30" fill="#F3F0E8" fill-opacity="0.22"/>
<line x1="748" y1="496" x2="748" y2="526" stroke="#242722" stroke-width="1" stroke-opacity="0.16"/>
<rect x="100" y="526" width="34" height="30" fill="#D5C2A3"/>
<rect x="100" y="526" width="34" height="30" fill="#F3F0E8" fill-opacity="0.22"/>
<line x1="134" y1="526" x2="134" y2="556" stroke="#242722" stroke-width="1" stroke-opacity="0.16"/>
<rect x="736" y="526" width="34" height="30" fill="#D5C2A3"/>
<rect x="736" y="526" width="34" height="30" fill="#F3F0E8" fill-opacity="0.22"/>
<line x1="736" y1="526" x2="736" y2="556" stroke="#242722" stroke-width="1" stroke-opacity="0.16"/>
<rect x="100" y="556" width="22" height="30" fill="#D5C2A3"/>
<rect x="100" y="556" width="22" height="30" fill="#F3F0E8" fill-opacity="0.22"/>
<line x1="122" y1="556" x2="122" y2="586" stroke="#242722" stroke-width="1" stroke-opacity="0.16"/>
<rect x="748" y="556" width="22" height="30" fill="#D5C2A3"/>
<rect x="748" y="556" width="22" height="30" fill="#F3F0E8" fill-opacity="0.22"/>
<line x1="748" y1="556" x2="748" y2="586" stroke="#242722" stroke-width="1" stroke-opacity="0.16"/>
<rect x="100" y="586" width="34" height="30" fill="#D5C2A3"/>
<rect x="100" y="586" width="34" height="30" fill="#F3F0E8" fill-opacity="0.22"/>
<line x1="134" y1="586" x2="134" y2="616" stroke="#242722" stroke-width="1" stroke-opacity="0.16"/>
<rect x="736" y="586" width="34" height="30" fill="#D5C2A3"/>
<rect x="736" y="586" width="34" height="30" fill="#F3F0E8" fill-opacity="0.22"/>
<line x1="736" y1="586" x2="736" y2="616" stroke="#242722" stroke-width="1" stroke-opacity="0.16"/>
<rect x="100" y="616" width="22" height="30" fill="#D5C2A3"/>
<rect x="100" y="616" width="22" height="30" fill="#F3F0E8" fill-opacity="0.22"/>
<line x1="122" y1="616" x2="122" y2="646" stroke="#242722" stroke-width="1" stroke-opacity="0.16"/>
<rect x="748" y="616" width="22" height="30" fill="#D5C2A3"/>
<rect x="748" y="616" width="22" height="30" fill="#F3F0E8" fill-opacity="0.22"/>
<line x1="748" y1="616" x2="748" y2="646" stroke="#242722" stroke-width="1" stroke-opacity="0.16"/>
<rect x="100" y="646" width="34" height="30" fill="#D5C2A3"/>
<rect x="100" y="646" width="34" height="30" fill="#F3F0E8" fill-opacity="0.22"/>
<line x1="134" y1="646" x2="134" y2="676" stroke="#242722" stroke-width="1" stroke-opacity="0.16"/>
<rect x="736" y="646" width="34" height="30" fill="#D5C2A3"/>
<rect x="736" y="646" width="34" height="30" fill="#F3F0E8" fill-opacity="0.22"/>
<line x1="736" y1="646" x2="736" y2="676" stroke="#242722" stroke-width="1" stroke-opacity="0.16"/>
<rect x="100" y="676" width="22" height="30" fill="#D5C2A3"/>
<rect x="100" y="676" width="22" height="30" fill="#F3F0E8" fill-opacity="0.22"/>
<line x1="122" y1="676" x2="122" y2="706" stroke="#242722" stroke-width="1" stroke-opacity="0.16"/>
<rect x="748" y="676" width="22" height="30" fill="#D5C2A3"/>
<rect x="748" y="676" width="22" height="30" fill="#F3F0E8" fill-opacity="0.22"/>
<line x1="748" y1="676" x2="748" y2="706" stroke="#242722" stroke-width="1" stroke-opacity="0.16"/>
<rect x="100" y="706" width="34" height="30" fill="#D5C2A3"/>
<rect x="100" y="706" width="34" height="30" fill="#F3F0E8" fill-opacity="0.22"/>
<line x1="134" y1="706" x2="134" y2="736" stroke="#242722" stroke-width="1" stroke-opacity="0.16"/>
<rect x="736" y="706" width="34" height="30" fill="#D5C2A3"/>
<rect x="736" y="706" width="34" height="30" fill="#F3F0E8" fill-opacity="0.22"/>
<line x1="736" y1="706" x2="736" y2="736" stroke="#242722" stroke-width="1" stroke-opacity="0.16"/>
<rect x="100" y="736" width="22" height="30" fill="#D5C2A3"/>
<rect x="100" y="736" width="22" height="30" fill="#F3F0E8" fill-opacity="0.22"/>
<line x1="122" y1="736" x2="122" y2="766" stroke="#242722" stroke-width="1" stroke-opacity="0.16"/>
<rect x="748" y="736" width="22" height="30" fill="#D5C2A3"/>
<rect x="748" y="736" width="22" height="30" fill="#F3F0E8" fill-opacity="0.22"/>
<line x1="748" y1="736" x2="748" y2="766" stroke="#242722" stroke-width="1" stroke-opacity="0.16"/>
<rect x="187" y="489" width="106" height="113" fill="#242722" fill-opacity="0.22"/>
<rect x="196" y="498" width="88" height="104" fill="#242722" fill-opacity="0.82"/>
<rect x="199" y="501" width="82" height="43.68" fill="#F3F0E8" fill-opacity="0.1"/>
<rect x="196" y="548" width="88" height="4" fill="#F3F0E8" fill-opacity="0.85"/>
<rect x="238.5" y="498" width="3" height="104" fill="#F3F0E8" fill-opacity="0.65"/>
<rect x="183" y="602" width="114" height="7" fill="#D5C2A3"/>
<rect x="183" y="602" width="114" height="7" fill="#F3F0E8" fill-opacity="0.35"/>
<rect x="183" y="609" width="114" height="6" fill="#242722" fill-opacity="0.18"/>
<rect x="382" y="489" width="106" height="113" fill="#242722" fill-opacity="0.22"/>
<rect x="391" y="498" width="88" height="104" fill="#242722" fill-opacity="0.82"/>
<rect x="394" y="501" width="82" height="43.68" fill="#F3F0E8" fill-opacity="0.1"/>
<rect x="391" y="548" width="88" height="4" fill="#F3F0E8" fill-opacity="0.85"/>
<rect x="433.5" y="498" width="3" height="104" fill="#F3F0E8" fill-opacity="0.65"/>
<rect x="378" y="602" width="114" height="7" fill="#D5C2A3"/>
<rect x="378" y="602" width="114" height="7" fill="#F3F0E8" fill-opacity="0.35"/>
<rect x="378" y="609" width="114" height="6" fill="#242722" fill-opacity="0.18"/>
<rect x="577" y="489" width="106" height="113" fill="#242722" fill-opacity="0.22"/>
<rect x="586" y="498" width="88" height="104" fill="#242722" fill-opacity="0.82"/>
<rect x="589" y="501" width="82" height="43.68" fill="#F3F0E8" fill-opacity="0.1"/>
<rect x="586" y="548" width="88" height="4" fill="#F3F0E8" fill-opacity="0.85"/>
<rect x="628.5" y="498" width="3" height="104" fill="#F3F0E8" fill-opacity="0.65"/>
<rect x="573" y="602" width="114" height="7" fill="#D5C2A3"/>
<rect x="573" y="602" width="114" height="7" fill="#F3F0E8" fill-opacity="0.35"/>
<rect x="573" y="609" width="114" height="6" fill="#242722" fill-opacity="0.18"/>
<rect x="187" y="635" width="106" height="131" fill="#242722" fill-opacity="0.22"/>
<rect x="196" y="644" width="88" height="122" fill="#242722" fill-opacity="0.82"/>
<rect x="199" y="647" width="82" height="51.24" fill="#F3F0E8" fill-opacity="0.1"/>
<rect x="196" y="703" width="88" height="4" fill="#F3F0E8" fill-opacity="0.85"/>
<rect x="238.5" y="644" width="3" height="122" fill="#F3F0E8" fill-opacity="0.65"/>
<rect x="183" y="766" width="114" height="7" fill="#D5C2A3"/>
<rect x="183" y="766" width="114" height="7" fill="#F3F0E8" fill-opacity="0.35"/>
<rect x="183" y="773" width="114" height="6" fill="#242722" fill-opacity="0.18"/>
<rect x="577" y="635" width="106" height="131" fill="#242722" fill-opacity="0.22"/>
<rect x="586" y="644" width="88" height="122" fill="#242722" fill-opacity="0.82"/>
<rect x="589" y="647" width="82" height="51.24" fill="#F3F0E8" fill-opacity="0.1"/>
<rect x="586" y="703" width="88" height="4" fill="#F3F0E8" fill-opacity="0.85"/>
<rect x="628.5" y="644" width="3" height="122" fill="#F3F0E8" fill-opacity="0.65"/>
<rect x="573" y="766" width="114" height="7" fill="#D5C2A3"/>
<rect x="573" y="766" width="114" height="7" fill="#F3F0E8" fill-opacity="0.35"/>
<rect x="573" y="773" width="114" height="6" fill="#242722" fill-opacity="0.18"/>
<rect x="395" y="638" width="80" height="142" fill="#242722" fill-opacity="0.2"/>
<rect x="403" y="646" width="64" height="134" fill="#405448" fill-opacity="0.88"/>
<rect x="433.5" y="675.48" width="3" height="134" fill="#F3F0E8" fill-opacity="0.4"/>
<rect x="403" y="646" width="64" height="24.12" fill="#242722" fill-opacity="0.7"/>
<rect x="406" y="649" width="58" height="16.08" fill="#F3F0E8" fill-opacity="0.25"/>
<rect x="100" y="758" width="670" height="22" fill="#D5C2A3"/>
<rect x="100" y="758" width="670" height="22" fill="#242722" fill-opacity="0.16"/>
<line x1="100" y1="758" x2="770" y2="758" stroke="#242722" stroke-width="1" stroke-opacity="0.25"/>
<rect x="770" y="618" width="76" height="162" fill="#242722" fill-opacity="0.82"/>
<rect x="773" y="621" width="70" height="64.8" fill="#F3F0E8" fill-opacity="0.14"/>
<rect x="770" y="612" width="76" height="6" fill="#242722" fill-opacity="0.9"/>
<rect x="806" y="618" width="4" height="162" fill="#F3F0E8" fill-opacity="0.55"/>
<rect x="770" y="666.6" width="76" height="4" fill="#F3F0E8" fill-opacity="0.55"/>
<rect x="770" y="618" width="76" height="162" fill="#242722" fill-opacity="0.18"/>
<rect x="846" y="536" width="684" height="50" fill="#D5C2A3"/>
<rect x="846" y="536" width="684" height="50" fill="#F3F0E8" fill-opacity="0.45"/>
<rect x="846" y="536" width="684" height="5" fill="#242722" fill-opacity="0.8"/>
<rect x="846" y="580" width="684" height="6" fill="#242722" fill-opacity="0.2"/>
<rect x="1106" y="522" width="200" height="14" fill="#D5C2A3"/>
<rect x="1106" y="522" width="200" height="14" fill="#242722" fill-opacity="0.45"/>
<rect x="1109" y="505" width="194" height="22" fill="#F3F0E8" fill-opacity="0.7"/>
<rect x="1112" y="508" width="188" height="16" fill="#242722" fill-opacity="0.8"/>
<rect x="1115" y="511" width="182" height="6.4" fill="#F3F0E8" fill-opacity="0.25"/>
<rect x="846" y="586" width="684" height="194" fill="#D5C2A3"/>
<rect x="846" y="586" width="684" height="194" fill="#242722" fill-opacity="0.7"/>
<line x1="864" y1="586" x2="864" y2="780" stroke="#F3F0E8" stroke-width="1" stroke-opacity="0.15"/>
<line x1="882" y1="586" x2="882" y2="780" stroke="#F3F0E8" stroke-width="1" stroke-opacity="0.15"/>
<line x1="900" y1="586" x2="900" y2="780" stroke="#F3F0E8" stroke-width="1" stroke-opacity="0.15"/>
<line x1="918" y1="586" x2="918" y2="780" stroke="#F3F0E8" stroke-width="1" stroke-opacity="0.15"/>
<line x1="936" y1="586" x2="936" y2="780" stroke="#F3F0E8" stroke-width="1" stroke-opacity="0.15"/>
<line x1="954" y1="586" x2="954" y2="780" stroke="#F3F0E8" stroke-width="1" stroke-opacity="0.15"/>
<line x1="972" y1="586" x2="972" y2="780" stroke="#F3F0E8" stroke-width="1" stroke-opacity="0.15"/>
<line x1="990" y1="586" x2="990" y2="780" stroke="#F3F0E8" stroke-width="1" stroke-opacity="0.15"/>
<line x1="1008" y1="586" x2="1008" y2="780" stroke="#F3F0E8" stroke-width="1" stroke-opacity="0.15"/>
<line x1="1026" y1="586" x2="1026" y2="780" stroke="#F3F0E8" stroke-width="1" stroke-opacity="0.15"/>
<line x1="1044" y1="586" x2="1044" y2="780" stroke="#F3F0E8" stroke-width="1" stroke-opacity="0.15"/>
<line x1="1062" y1="586" x2="1062" y2="780" stroke="#F3F0E8" stroke-width="1" stroke-opacity="0.15"/>
<line x1="1080" y1="586" x2="1080" y2="780" stroke="#F3F0E8" stroke-width="1" stroke-opacity="0.15"/>
<line x1="1098" y1="586" x2="1098" y2="780" stroke="#F3F0E8" stroke-width="1" stroke-opacity="0.15"/>
<line x1="1116" y1="586" x2="1116" y2="780" stroke="#F3F0E8" stroke-width="1" stroke-opacity="0.15"/>
<line x1="1134" y1="586" x2="1134" y2="780" stroke="#F3F0E8" stroke-width="1" stroke-opacity="0.15"/>
<line x1="1152" y1="586" x2="1152" y2="780" stroke="#F3F0E8" stroke-width="1" stroke-opacity="0.15"/>
<line x1="1170" y1="586" x2="1170" y2="780" stroke="#F3F0E8" stroke-width="1" stroke-opacity="0.15"/>
<line x1="1188" y1="586" x2="1188" y2="780" stroke="#F3F0E8" stroke-width="1" stroke-opacity="0.15"/>
<line x1="1206" y1="586" x2="1206" y2="780" stroke="#F3F0E8" stroke-width="1" stroke-opacity="0.15"/>
<line x1="1224" y1="586" x2="1224" y2="780" stroke="#F3F0E8" stroke-width="1" stroke-opacity="0.15"/>
<line x1="1242" y1="586" x2="1242" y2="780" stroke="#F3F0E8" stroke-width="1" stroke-opacity="0.15"/>
<line x1="1260" y1="586" x2="1260" y2="780" stroke="#F3F0E8" stroke-width="1" stroke-opacity="0.15"/>
<line x1="1278" y1="586" x2="1278" y2="780" stroke="#F3F0E8" stroke-width="1" stroke-opacity="0.15"/>
<line x1="1296" y1="586" x2="1296" y2="780" stroke="#F3F0E8" stroke-width="1" stroke-opacity="0.15"/>
<line x1="1314" y1="586" x2="1314" y2="780" stroke="#F3F0E8" stroke-width="1" stroke-opacity="0.15"/>
<line x1="1332" y1="586" x2="1332" y2="780" stroke="#F3F0E8" stroke-width="1" stroke-opacity="0.15"/>
<line x1="1350" y1="586" x2="1350" y2="780" stroke="#F3F0E8" stroke-width="1" stroke-opacity="0.15"/>
<line x1="1368" y1="586" x2="1368" y2="780" stroke="#F3F0E8" stroke-width="1" stroke-opacity="0.15"/>
<line x1="1386" y1="586" x2="1386" y2="780" stroke="#F3F0E8" stroke-width="1" stroke-opacity="0.15"/>
<line x1="1404" y1="586" x2="1404" y2="780" stroke="#F3F0E8" stroke-width="1" stroke-opacity="0.15"/>
<line x1="1422" y1="586" x2="1422" y2="780" stroke="#F3F0E8" stroke-width="1" stroke-opacity="0.15"/>
<line x1="1440" y1="586" x2="1440" y2="780" stroke="#F3F0E8" stroke-width="1" stroke-opacity="0.15"/>
<line x1="1458" y1="586" x2="1458" y2="780" stroke="#F3F0E8" stroke-width="1" stroke-opacity="0.15"/>
<line x1="1476" y1="586" x2="1476" y2="780" stroke="#F3F0E8" stroke-width="1" stroke-opacity="0.15"/>
<line x1="1494" y1="586" x2="1494" y2="780" stroke="#F3F0E8" stroke-width="1" stroke-opacity="0.15"/>
<line x1="1512" y1="586" x2="1512" y2="780" stroke="#F3F0E8" stroke-width="1" stroke-opacity="0.15"/>
<rect x="846" y="586" width="684" height="14" fill="#242722" fill-opacity="0.3"/>
<rect x="880" y="606" width="496" height="174" fill="#F3F0E8" fill-opacity="0.55"/>
<rect x="886" y="612" width="484" height="168" fill="#242722" fill-opacity="0.82"/>
<rect x="890" y="616" width="476" height="63.84" fill="#F3F0E8" fill-opacity="0.12"/>
<rect x="1045.33" y="612" width="4" height="168" fill="#F3F0E8" fill-opacity="0.7"/>
<rect x="1206.67" y="612" width="4" height="168" fill="#F3F0E8" fill-opacity="0.7"/>
<rect x="886" y="774" width="484" height="6" fill="#F3F0E8" fill-opacity="0.5"/>
<rect x="1410" y="612" width="70" height="60" fill="#242722" fill-opacity="0.82"/>
<rect x="1406" y="608" width="78" height="4" fill="#F3F0E8" fill-opacity="0.5"/>
<rect x="1406" y="608" width="4" height="68" fill="#F3F0E8" fill-opacity="0.5"/>
<rect x="1476" y="608" width="4" height="68" fill="#F3F0E8" fill-opacity="0.5"/>
<rect x="1406" y="672" width="78" height="4" fill="#F3F0E8" fill-opacity="0.5"/>
<rect x="1530" y="586" width="26" height="194" fill="#D5C2A3"/>
<rect x="1530" y="586" width="26" height="194" fill="#242722" fill-opacity="0.84"/>
<rect x="1530" y="536" width="26" height="50" fill="#D5C2A3"/>
<rect x="1530" y="536" width="26" height="50" fill="#242722" fill-opacity="0.3"/>
<rect x="1530" y="536" width="26" height="5" fill="#242722" fill-opacity="0.8"/>
<rect x="0" y="780" width="1600" height="220" fill="#405448"/>
<rect x="0" y="780" width="1600" height="220" fill="#F3F0E8" fill-opacity="0.08"/>
<line x1="0" y1="810" x2="1600" y2="810" stroke="#F3F0E8" stroke-width="1" stroke-opacity="0.05"/>
<line x1="0" y1="840" x2="1600" y2="840" stroke="#F3F0E8" stroke-width="1" stroke-opacity="0.05"/>
<line x1="0" y1="870" x2="1600" y2="870" stroke="#F3F0E8" stroke-width="1" stroke-opacity="0.05"/>
<line x1="0" y1="900" x2="1600" y2="900" stroke="#F3F0E8" stroke-width="1" stroke-opacity="0.05"/>
<line x1="0" y1="930" x2="1600" y2="930" stroke="#F3F0E8" stroke-width="1" stroke-opacity="0.05"/>
<line x1="0" y1="960" x2="1600" y2="960" stroke="#F3F0E8" stroke-width="1" stroke-opacity="0.05"/>
<line x1="0" y1="990" x2="1600" y2="990" stroke="#F3F0E8" stroke-width="1" stroke-opacity="0.05"/>
<rect x="786" y="780" width="804" height="96" fill="#C8C2B6"/>
<line x1="786" y1="780" x2="1590" y2="780" stroke="#242722" stroke-width="1" stroke-opacity="0.14"/>
<line x1="786" y1="780" x2="786" y2="812" stroke="#242722" stroke-width="1" stroke-opacity="0.12"/>
<line x1="882" y1="780" x2="882" y2="812" stroke="#242722" stroke-width="1" stroke-opacity="0.12"/>
<line x1="978" y1="780" x2="978" y2="812" stroke="#242722" stroke-width="1" stroke-opacity="0.12"/>
<line x1="1074" y1="780" x2="1074" y2="812" stroke="#242722" stroke-width="1" stroke-opacity="0.12"/>
<line x1="1170" y1="780" x2="1170" y2="812" stroke="#242722" stroke-width="1" stroke-opacity="0.12"/>
<line x1="1266" y1="780" x2="1266" y2="812" stroke="#242722" stroke-width="1" stroke-opacity="0.12"/>
<line x1="1362" y1="780" x2="1362" y2="812" stroke="#242722" stroke-width="1" stroke-opacity="0.12"/>
<line x1="1458" y1="780" x2="1458" y2="812" stroke="#242722" stroke-width="1" stroke-opacity="0.12"/>
<line x1="1554" y1="780" x2="1554" y2="812" stroke="#242722" stroke-width="1" stroke-opacity="0.12"/>
<line x1="786" y1="812" x2="1590" y2="812" stroke="#242722" stroke-width="1" stroke-opacity="0.14"/>
<line x1="834" y1="812" x2="834" y2="844" stroke="#242722" stroke-width="1" stroke-opacity="0.12"/>
<line x1="930" y1="812" x2="930" y2="844" stroke="#242722" stroke-width="1" stroke-opacity="0.12"/>
<line x1="1026" y1="812" x2="1026" y2="844" stroke="#242722" stroke-width="1" stroke-opacity="0.12"/>
<line x1="1122" y1="812" x2="1122" y2="844" stroke="#242722" stroke-width="1" stroke-opacity="0.12"/>
<line x1="1218" y1="812" x2="1218" y2="844" stroke="#242722" stroke-width="1" stroke-opacity="0.12"/>
<line x1="1314" y1="812" x2="1314" y2="844" stroke="#242722" stroke-width="1" stroke-opacity="0.12"/>
<line x1="1410" y1="812" x2="1410" y2="844" stroke="#242722" stroke-width="1" stroke-opacity="0.12"/>
<line x1="1506" y1="812" x2="1506" y2="844" stroke="#242722" stroke-width="1" stroke-opacity="0.12"/>
<line x1="786" y1="844" x2="1590" y2="844" stroke="#242722" stroke-width="1" stroke-opacity="0.14"/>
<line x1="786" y1="844" x2="786" y2="876" stroke="#242722" stroke-width="1" stroke-opacity="0.12"/>
<line x1="882" y1="844" x2="882" y2="876" stroke="#242722" stroke-width="1" stroke-opacity="0.12"/>
<line x1="978" y1="844" x2="978" y2="876" stroke="#242722" stroke-width="1" stroke-opacity="0.12"/>
<line x1="1074" y1="844" x2="1074" y2="876" stroke="#242722" stroke-width="1" stroke-opacity="0.12"/>
<line x1="1170" y1="844" x2="1170" y2="876" stroke="#242722" stroke-width="1" stroke-opacity="0.12"/>
<line x1="1266" y1="844" x2="1266" y2="876" stroke="#242722" stroke-width="1" stroke-opacity="0.12"/>
<line x1="1362" y1="844" x2="1362" y2="876" stroke="#242722" stroke-width="1" stroke-opacity="0.12"/>
<line x1="1458" y1="844" x2="1458" y2="876" stroke="#242722" stroke-width="1" stroke-opacity="0.12"/>
<line x1="1554" y1="844" x2="1554" y2="876" stroke="#242722" stroke-width="1" stroke-opacity="0.12"/>
<rect x="786" y="876" width="804" height="6" fill="#242722" fill-opacity="0.3"/>
<rect x="786" y="882" width="804" height="26" fill="#C8C2B6"/>
<rect x="786" y="882" width="804" height="26" fill="#242722" fill-opacity="0.12"/>
<rect x="786" y="908" width="804" height="5" fill="#242722" fill-opacity="0.25"/>
<rect x="786" y="780" width="804" height="34" fill="#242722" fill-opacity="0.14"/>
<rect x="100" y="780" width="746" height="18" fill="#242722" fill-opacity="0.1"/>
<rect x="90" y="780" width="680" height="12" fill="#C8C2B6"/>
<rect x="90" y="780" width="680" height="12" fill="#242722" fill-opacity="0.1"/>
<rect x="0" y="706" width="80" height="114" fill="#405448"/>
<circle cx="80" cy="728" r="22" fill="#405448"/>
<rect x="58" y="728" width="22" height="92" fill="#405448"/>
<circle cx="8" cy="708" r="16" fill="#405448"/>
<circle cx="34" cy="708" r="16" fill="#405448"/>
<circle cx="60" cy="708" r="16" fill="#405448"/>
<rect x="0" y="706" width="82" height="114" fill="#242722" fill-opacity="0.16"/>
<rect x="0" y="696" width="66" height="22" fill="#F3F0E8" fill-opacity="0.1"/>
<rect x="0" y="800" width="80" height="20" fill="#242722" fill-opacity="0.12"/>
<circle cx="1552" cy="744" r="44" fill="#405448"/>
<circle cx="1528" cy="724" r="30" fill="#405448"/>
<circle cx="1578" cy="726" r="26" fill="#405448"/>
<rect x="1520" y="696" width="40" height="24" fill="#F3F0E8" fill-opacity="0.08"/>
<rect x="1508" y="750" width="92" height="32" fill="#242722" fill-opacity="0.12"/>
<rect x="0" y="0" width="1600" height="536" fill="#F3F0E8" fill-opacity="0.06"/>
</svg>
