<svg xmlns="http://www.w3.org/2000/svg" viewBox="0 0 1600 1000" width="1600" height="1000" role="img" aria-labelledby="t d">
<title id="t">Housing block entrance</title>
<desc id="d">The entrance of a four-storey post-war walk-up housing block after upgrade, with freshly rendered walls, a regular grid of new windows either side of a central stair tower, a canopied door with a ramp, a grass strip, a path and a bin store.</desc>
<rect x="0" y="0" width="1600" height="1000" fill="#F3F0E8"/>
<rect x="0" y="240" width="1600" height="40" fill="#C8C2B6" fill-opacity="0.30000000000000004"/>
<rect x="0" y="200" width="1600" height="40" fill="#C8C2B6" fill-opacity="0.25"/>
<rect x="0" y="160" width="1600" height="40" fill="#C8C2B6" fill-opacity="0.2"/>
<rect x="0" y="120" width="1600" height="40" fill="#C8C2B6" fill-opacity="0.15000000000000002"/>
<rect x="0" y="80" width="1600" height="40" fill="#C8C2B6" fill-opacity="0.1"/>
<rect x="0" y="40" width="1600" height="40" fill="#C8C2B6" fill-opacity="0.05"/>
<rect x="-40" y="90" width="1680" height="120" fill="#242722" fill-opacity="0.44"/>
<line x1="-40" y1="104" x2="1640" y2="104" stroke="#F3F0E8" stroke-width="1" stroke-opacity="0.12"/>
<line x1="-40" y1="118" x2="1640" y2="118" stroke="#F3F0E8" stroke-width="1" stroke-opacity="0.12"/>
<line x1="-40" y1="132" x2="1640" y2="132" stroke="#F3F0E8" stroke-width="1" stroke-opacity="0.12"/>
<line x1="-40" y1="146" x2="1640" y2="146" stroke="#F3F0E8" stroke-width="1" stroke-opacity="0.12"/>
<line x1="-40" y1="160" x2="1640" y2="160" stroke="#F3F0E8" stroke-width="1" stroke-opacity="0.12"/>
<line x1="-40" y1="174" x2="1640" y2="174" stroke="#F3F0E8" stroke-width="1" stroke-opacity="0.12"/>
<line x1="-40" y1="188" x2="1640" y2="188" stroke="#F3F0E8" stroke-width="1" stroke-opacity="0.12"/>
<line x1="-40" y1="202" x2="1640" y2="202" stroke="#F3F0E8" stroke-width="1" stroke-opacity="0.12"/>
<rect x="-40" y="90" width="1680" height="5" fill="#F3F0E8" fill-opacity="0.4"/>
<rect x="-40" y="90" width="1680" height="42" fill="#F3F0E8" fill-opacity="0.08"/>
<rect x="-40" y="210" width="1680" height="22" fill="#242722" fill-opacity="0.5"/>
<rect x="-40" y="210" width="1680" height="3" fill="#F3F0E8" fill-opacity="0.3"/>
<rect x="-40" y="232" width="1680" height="8" fill="#242722" fill-opacity="0.7"/>
<polygon points="701,90 899,90 875,44 725,44" fill="#242722" fill-opacity="0.6"/>
<rect x="725" y="44" width="150" height="4" fill="#F3F0E8" fill-opacity="0.3"/>
<rect x="701" y="84" width="198" height="8" fill="#242722" fill-opacity="0.7"/>
<rect x="0" y="240" width="1600" height="550" fill="#C8C2B6"/>
<rect x="0" y="240" width="1600" height="550" fill="#F3F0E8" fill-opacity="0.4"/>
<rect x="0" y="240" width="1600" height="22" fill="#242722" fill-opacity="0.14"/>
<rect x="579" y="694" width="92" height="81" fill="#242722" fill-opacity="0.22"/>
<rect x="585" y="700" width="80" height="75" fill="#242722" fill-opacity="0.82"/>
<rect x="588" y="703" width="74" height="31.5" fill="#F3F0E8" fill-opacity="0.1"/>
<rect x="585" y="735.5" width="80" height="4" fill="#F3F0E8" fill-opacity="0.85"/>
<rect x="623.5" y="700" width="3" height="75" fill="#F3F0E8" fill-opacity="0.65"/>
<rect x="575" y="775" width="100" height="7" fill="#D5C2A3"/>
<rect x="575" y="775" width="100" height="7" fill="#F3F0E8" fill-opacity="0.35"/>
<rect x="575" y="782" width="100" height="6" fill="#242722" fill-opacity="0.18"/>
<rect x="929" y="694" width="92" height="81" fill="#242722" fill-opacity="0.22"/>
<rect x="935" y="700" width="80" height="75" fill="#242722" fill-opacity="0.82"/>
<rect x="938" y="703" width="74" height="31.5" fill="#F3F0E8" fill-opacity="0.1"/>
<rect x="935" y="735.5" width="80" height="4" fill="#F3F0E8" fill-opacity="0.85"/>
<rect x="973.5" y="700" width="3" height="75" fill="#F3F0E8" fill-opacity="0.65"/>
<rect x="925" y="775" width="100" height="7" fill="#D5C2A3"/>
<rect x="925" y="775" width="100" height="7" fill="#F3F0E8" fill-opacity="0.35"/>
<rect x="925" y="782" width="100" height="6" fill="#242722" fill-opacity="0.18"/>
<rect x="399" y="694" width="92" height="81" fill="#242722" fill-opacity="0.22"/>
<rect x="405" y="700" width="80" height="75" fill="#242722" fill-opacity="0.82"/>
<rect x="408" y="703" width="74" height="31.5" fill="#F3F0E8" fill-opacity="0.1"/>
<rect x="405" y="735.5" width="80" height="4" fill="#F3F0E8" fill-opacity="0.85"/>
<rect x="443.5" y="700" width="3" height="75" fill="#F3F0E8" fill-opacity="0.65"/>
<rect x="395" y="775" width="100" height="7" fill="#D5C2A3"/>
<rect x="395" y="775" width="100" height="7" fill="#F3F0E8" fill-opacity="0.35"/>
<rect x="395" y="782" width="100" height="6" fill="#242722" fill-opacity="0.18"/>
<rect x="1109" y="694" width="92" height="81" fill="#242722" fill-opacity="0.22"/>
<rect x="1115" y="700" width="80" height="75" fill="#242722" fill-opacity="0.82"/>
<rect x="1118" y="703" width="74" height="31.5" fill="#F3F0E8" fill-opacity="0.1"/>
<rect x="1115" y="735.5" width="80" height="4" fill="#F3F0E8" fill-opacity="0.85"/>
<rect x="1153.5" y="700" width="3" height="75" fill="#F3F0E8" fill-opacity="0.65"/>
<rect x="1105" y="775" width="100" height="7" fill="#D5C2A3"/>
<rect x="1105" y="775" width="100" height="7" fill="#F3F0E8" fill-opacity="0.35"/>
<rect x="1105" y="782" width="100" height="6" fill="#242722" fill-opacity="0.18"/>
<rect x="219" y="694" width="92" height="81" fill="#242722" fill-opacity="0.22"/>
<rect x="225" y="700" width="80" height="75" fill="#242722" fill-opacity="0.82"/>
<rect x="228" y="703" width="74" height="31.5" fill="#F3F0E8" fill-opacity="0.1"/>
<rect x="225" y="735.5" width="80" height="4" fill="#F3F0E8" fill-opacity="0.85"/>
<rect x="263.5" y="700" width="3" height="75" fill="#F3F0E8" fill-opacity="0.65"/>
<rect x="215" y="775" width="100" height="7" fill="#D5C2A3"/>
<rect x="215" y="775" width="100" height="7" fill="#F3F0E8" fill-opacity="0.35"/>
<rect x="215" y="782" width="100" height="6" fill="#242722" fill-opacity="0.18"/>
<rect x="1289" y="694" width="92" height="81" fill="#242722" fill-opacity="0.22"/>
<rect x="1295" y="700" width="80" height="75" fill="#242722" fill-opacity="0.82"/>
<rect x="1298" y="703" width="74" height="31.5" fill="#F3F0E8" fill-opacity="0.1"/>
<rect x="1295" y="735.5" width="80" height="4" fill="#F3F0E8" fill-opacity="0.85"/>
<rect x="1333.5" y="700" width="3" height="75" fill="#F3F0E8" fill-opacity="0.65"/>
<rect x="1285" y="775" width="100" height="7" fill="#D5C2A3"/>
<rect x="1285" y="775" width="100" height="7" fill="#F3F0E8" fill-opacity="0.35"/>
<rect x="1285" y="782" width="100" height="6" fill="#242722" fill-opacity="0.18"/>
<rect x="579" y="556.5" width="92" height="81" fill="#242722" fill-opacity="0.22"/>
<rect x="585" y="562.5" width="80" height="75" fill="#242722" fill-opacity="0.82"/>
<rect x="588" y="565.5" width="74" height="31.5" fill="#F3F0E8" fill-opacity="0.1"/>
<rect x="585" y="598" width="80" height="4" fill="#F3F0E8" fill-opacity="0.85"/>
<rect x="623.5" y="562.5" width="3" height="75" fill="#F3F0E8" fill-opacity="0.65"/>
<rect x="575" y="637.5" width="100" height="7" fill="#D5C2A3"/>
<rect x="575" y="637.5" width="100" height="7" fill="#F3F0E8" fill-opacity="0.35"/>
<rect x="575" y="644.5" width="100" height="6" fill="#242722" fill-opacity="0.18"/>
<rect x="929" y="556.5" width="92" height="81" fill="#242722" fill-opacity="0.22"/>
<rect x="935" y="562.5" width="80" height="75" fill="#242722" fill-opacity="0.82"/>
<rect x="938" y="565.5" width="74" height="31.5" fill="#F3F0E8" fill-opacity="0.1"/>
<rect x="935" y="598" width="80" height="4" fill="#F3F0E8" fill-opacity="0.85"/>
<rect x="973.5" y="562.5" width="3" height="75" fill="#F3F0E8" fill-opacity="0.65"/>
<rect x="925" y="637.5" width="100" height="7" fill="#D5C2A3"/>
<rect x="925" y="637.5" width="100" height="7" fill="#F3F0E8" fill-opacity="0.35"/>
<rect x="925" y="644.5" width="100" height="6" fill="#242722" fill-opacity="0.18"/>
<rect x="399" y="556.5" width="92" height="81" fill="#242722" fill-opacity="0.22"/>
<rect x="405" y="562.5" width="80" height="75" fill="#242722" fill-opacity="0.82"/>
<rect x="408" y="565.5" width="74" height="31.5" fill="#F3F0E8" fill-opacity="0.1"/>
<rect x="405" y="598" width="80" height="4" fill="#F3F0E8" fill-opacity="0.85"/>
<rect x="443.5" y="562.5" width="3" height="75" fill="#F3F0E8" fill-opacity="0.65"/>
<rect x="395" y="637.5" width="100" height="7" fill="#D5C2A3"/>
<rect x="395" y="637.5" width="100" height="7" fill="#F3F0E8" fill-opacity="0.35"/>
<rect x="395" y="644.5" width="100" height="6" fill="#242722" fill-opacity="0.18"/>
<rect x="1109" y="556.5" width="92" height="81" fill="#242722" fill-opacity="0.22"/>
<rect x="1115" y="562.5" width="80" height="75" fill="#242722" fill-opacity="0.82"/>
<rect x="1118" y="565.5" width="74" height="31.5" fill="#F3F0E8" fill-opacity="0.1"/>
<rect x="1115" y="598" width="80" height="4" fill="#F3F0E8" fill-opacity="0.85"/>
<rect x="1153.5" y="562.5" width="3" height="75" fill="#F3F0E8" fill-opacity="0.65"/>
<rect x="1105" y="637.5" width="100" height="7" fill="#D5C2A3"/>
<rect x="1105" y="637.5" width="100" height="7" fill="#F3F0E8" fill-opacity="0.35"/>
<rect x="1105" y="644.5" width="100" height="6" fill="#242722" fill-opacity="0.18"/>
<rect x="219" y="556.5" width="92" height="81" fill="#242722" fill-opacity="0.22"/>
<rect x="225" y="562.5" width="80" height="75" fill="#242722" fill-opacity="0.82"/>
<rect x="228" y="565.5" width="74" height="31.5" fill="#F3F0E8" fill-opacity="0.1"/>
<rect x="225" y="598" width="80" height="4" fill="#F3F0E8" fill-opacity="0.85"/>
<rect x="263.5" y="562.5" width="3" height="75" fill="#F3F0E8" fill-opacity="0.65"/>
<rect x="215" y="637.5" width="100" height="7" fill="#D5C2A3"/>
<rect x="215" y="637.5" width="100" height="7" fill="#F3F0E8" fill-opacity="0.35"/>
<rect x="215" y="644.5" width="100" height="6" fill="#242722" fill-opacity="0.18"/>
<rect x="1289" y="556.5" width="92" height="81" fill="#242722" fill-opacity="0.22"/>
<rect x="1295" y="562.5" width="80" height="75" fill="#242722" fill-opacity="0.82"/>
<rect x="1298" y="565.5" width="74" height="31.5" fill="#F3F0E8" fill-opacity="0.1"/>
<rect x="1295" y="598" width="80" height="4" fill="#F3F0E8" fill-opacity="0.85"/>
<rect x="1333.5" y="562.5" width="3" height="75" fill="#F3F0E8" fill-opacity="0.65"/>
<rect x="1285" y="637.5" width="100" height="7" fill="#D5C2A3"/>
<rect x="1285" y="637.5" width="100" height="7" fill="#F3F0E8" fill-opacity="0.35"/>
<rect x="1285" y="644.5" width="100" height="6" fill="#242722" fill-opacity="0.18"/>
<rect x="579" y="419" width="92" height="81" fill="#242722" fill-opacity="0.22"/>
<rect x="585" y="425" width="80" height="75" fill="#242722" fill-opacity="0.82"/>
<rect x="588" y="428" width="74" height="31.5" fill="#F3F0E8" fill-opacity="0.1"/>
<rect x="585" y="460.5" width="80" height="4" fill="#F3F0E8" fill-opacity="0.85"/>
<rect x="623.5" y="425" width="3" height="75" fill="#F3F0E8" fill-opacity="0.65"/>
<rect x="575" y="500" width="100" height="7" fill="#D5C2A3"/>
<rect x="575" y="500" width="100" height="7" fill="#F3F0E8" fill-opacity="0.35"/>
<rect x="575" y="507" width="100" height="6" fill="#242722" fill-opacity="0.18"/>
<rect x="929" y="419" width="92" height="81" fill="#242722" fill-opacity="0.22"/>
<rect x="935" y="425" width="80" height="75" fill="#242722" fill-opacity="0.82"/>
<rect x="938" y="428" width="74" height="31.5" fill="#F3F0E8" fill-opacity="0.1"/>
<rect x="935" y="460.5" width="80" height="4" fill="#F3F0E8" fill-opacity="0.85"/>
<rect x="973.5" y="425" width="3" height="75" fill="#F3F0E8" fill-opacity="0.65"/>
<rect x="925" y="500" width="100" height="7" fill="#D5C2A3"/>
<rect x="925" y="500" width="100" height="7" fill="#F3F0E8" fill-opacity="0.35"/>
<rect x="925" y="507" width="100" height="6" fill="#242722" fill-opacity="0.18"/>
<rect x="399" y="419" width="92" height="81" fill="#242722" fill-opacity="0.22"/>
<rect x="405" y="425" width="80" height="75" fill="#242722" fill-opacity="0.82"/>
<rect x="408" y="428" width="74" height="31.5" fill="#F3F0E8" fill-opacity="0.1"/>
<rect x="405" y="460.5" width="80" height="4" fill="#F3F0E8" fill-opacity="0.85"/>
<rect x="443.5" y="425" width="3" height="75" fill="#F3F0E8" fill-opacity="0.65"/>
<rect x="395" y="500" width="100" height="7" fill="#D5C2A3"/>
<rect x="395" y="500" width="100" height="7" fill="#F3F0E8" fill-opacity="0.35"/>
<rect x="395" y="507" width="100" height="6" fill="#242722" fill-opacity="0.18"/>
<rect x="1109" y="419" width="92" height="81" fill="#242722" fill-opacity="0.22"/>
<rect x="1115" y="425" width="80" height="75" fill="#242722" fill-opacity="0.82"/>
<rect x="1118" y="428" width="74" height="31.5" fill="#F3F0E8" fill-opacity="0.1"/>
<rect x="1115" y="460.5" width="80" height="4" fill="#F3F0E8" fill-opacity="0.85"/>
<rect x="1153.5" y="425" width="3" height="75" fill="#F3F0E8" fill-opacity="0.65"/>
<rect x="1105" y="500" width="100" height="7" fill="#D5C2A3"/>
<rect x="1105" y="500" width="100" height="7" fill="#F3F0E8" fill-opacity="0.35"/>
<rect x="1105" y="507" width="100" height="6" fill="#242722" fill-opacity="0.18"/>
<rect x="219" y="419" width="92" height="81" fill="#242722" fill-opacity="0.22"/>
<rect x="225" y="425" width="80" height="75" fill="#242722" fill-opacity="0.82"/>
<rect x="228" y="428" width="74" height="31.5" fill="#F3F0E8" fill-opacity="0.1"/>
<rect x="225" y="460.5" width="80" height="4" fill="#F3F0E8" fill-opacity="0.85"/>
<rect x="263.5" y="425" width="3" height="75" fill="#F3F0E8" fill-opacity="0.65"/>
<rect x="215" y="500" width="100" height="7" fill="#D5C2A3"/>
<rect x="215" y="500" width="100" height="7" fill="#F3F0E8" fill-opacity="0.35"/>
<rect x="215" y="507" width="100" height="6" fill="#242722" fill-opacity="0.18"/>
<rect x="1289" y="419" width="92" height="81" fill="#242722" fill-opacity="0.22"/>
<rect x="1295" y="425" width="80" height="75" fill="#242722" fill-opacity="0.82"/>
<rect x="1298" y="428" width="74" height="31.5" fill="#F3F0E8" fill-opacity="0.1"/>
<rect x="1295" y="460.5" width="80" height="4" fill="#F3F0E8" fill-opacity="0.85"/>
<rect x="1333.5" y="425" width="3" height="75" fill="#F3F0E8" fill-opacity="0.65"/>
<rect x="1285" y="500" width="100" height="7" fill="#D5C2A3"/>
<rect x="1285" y="500" width="100" height="7" fill="#F3F0E8" fill-opacity="0.35"/>
<rect x="1285" y="507" width="100" height="6" fill="#242722" fill-opacity="0.18"/>
<rect x="579" y="281.5" width="92" height="81" fill="#242722" fill-opacity="0.22"/>
<rect x="585" y="287.5" width="80" height="75" fill="#242722" fill-opacity="0.82"/>
<rect x="588" y="290.5" width="74" height="31.5" fill="#F3F0E8" fill-opacity="0.1"/>
<rect x="585" y="323" width="80" height="4" fill="#F3F0E8" fill-opacity="0.85"/>
<rect x="623.5" y="287.5" width="3" height="75" fill="#F3F0E8" fill-opacity="0.65"/>
<rect x="575" y="362.5" width="100" height="7" fill="#D5C2A3"/>
<rect x="575" y="362.5" width="100" height="7" fill="#F3F0E8" fill-opacity="0.35"/>
<rect x="575" y="369.5" width="100" height="6" fill="#242722" fill-opacity="0.18"/>
<rect x="929" y="281.5" width="92" height="81" fill="#242722" fill-opacity="0.22"/>
<rect x="935" y="287.5" width="80" height="75" fill="#242722" fill-opacity="0.82"/>
<rect x="938" y="290.5" width="74" height="31.5" fill="#F3F0E8" fill-opacity="0.1"/>
<rect x="935" y="323" width="80" height="4" fill="#F3F0E8" fill-opacity="0.85"/>
<rect x="973.5" y="287.5" width="3" height="75" fill="#F3F0E8" fill-opacity="0.65"/>
<rect x="925" y="362.5" width="100" height="7" fill="#D5C2A3"/>
<rect x="925" y="362.5" width="100" height="7" fill="#F3F0E8" fill-opacity="0.35"/>
<rect x="925" y="369.5" width="100" height="6" fill="#242722" fill-opacity="0.18"/>
<rect x="399" y="281.5" width="92" height="81" fill="#242722" fill-opacity="0.22"/>
<rect x="405" y="287.5" width="80" height="75" fill="#242722" fill-opacity="0.82"/>
<rect x="408" y="290.5" width="74" height="31.5" fill="#F3F0E8" fill-opacity="0.1"/>
<rect x="405" y="323" width="80" height="4" fill="#F3F0E8" fill-opacity="0.85"/>
<rect x="443.5" y="287.5" width="3" height="75" fill="#F3F0E8" fill-opacity="0.65"/>
<rect x="395" y="362.5" width="100" height="7" fill="#D5C2A3"/>
<rect x="395" y="362.5" width="100" height="7" fill="#F3F0E8" fill-opacity="0.35"/>
<rect x="395" y="369.5" width="100" height="6" fill="#242722" fill-opacity="0.18"/>
<rect x="1109" y="281.5" width="92" height="81" fill="#242722" fill-opacity="0.22"/>
<rect x="1115" y="287.5" width="80" height="75" fill="#242722" fill-opacity="0.82"/>
<rect x="1118" y="290.5" width="74" height="31.5" fill="#F3F0E8" fill-opacity="0.1"/>
<rect x="1115" y="323" width="80" height="4" fill="#F3F0E8" fill-opacity="0.85"/>
<rect x="1153.5" y="287.5" width="3" height="75" fill="#F3F0E8" fill-opacity="0.65"/>
<rect x="1105" y="362.5" width="100" height="7" fill="#D5C2A3"/>
<rect x="1105" y="362.5" width="100" height="7" fill="#F3F0E8" fill-opacity="0.35"/>
<rect x="1105" y="369.5" width="100" height="6" fill="#242722" fill-opacity="0.18"/>
<rect x="219" y="281.5" width="92" height="81" fill="#242722" fill-opacity="0.22"/>
<rect x="225" y="287.5" width="80" height="75" fill="#242722" fill-opacity="0.82"/>
<rect x="228" y="290.5" width="74" height="31.5" fill="#F3F0E8" fill-opacity="0.1"/>
<rect x="225" y="323" width="80" height="4" fill="#F3F0E8" fill-opacity="0.85"/>
<rect x="263.5" y="287.5" width="3" height="75" fill="#F3F0E8" fill-opacity="0.65"/>
<rect x="215" y="362.5" width="100" height="7" fill="#D5C2A3"/>
<rect x="215" y="362.5" width="100" height="7" fill="#F3F0E8" fill-opacity="0.35"/>
<rect x="215" y="369.5" width="100" height="6" fill="#242722" fill-opacity="0.18"/>
<rect x="1289" y="281.5" width="92" height="81" fill="#242722" fill-opacity="0.22"/>
<rect x="1295" y="287.5" width="80" height="75" fill="#242722" fill-opacity="0.82"/>
<rect x="1298" y="290.5" width="74" height="31.5" fill="#F3F0E8" fill-opacity="0.1"/>
<rect x="1295" y="323" width="80" height="4" fill="#F3F0E8" fill-opacity="0.85"/>
<rect x="1333.5" y="287.5" width="3" height="75" fill="#F3F0E8" fill-opacity="0.65"/>
<rect x="1285" y="362.5" width="100" height="7" fill="#D5C2A3"/>
<rect x="1285" y="362.5" width="100" height="7" fill="#F3F0E8" fill-opacity="0.35"/>
<rect x="1285" y="369.5" width="100" height="6" fill="#242722" fill-opacity="0.18"/>
<line x1="625" y1="262" x2="625" y2="790" stroke="#242722" stroke-width="1" stroke-opacity="0.06"/>
<line x1="975" y1="262" x2="975" y2="790" stroke="#242722" stroke-width="1" stroke-opacity="0.06"/>
<line x1="445" y1="262" x2="445" y2="790" stroke="#242722" stroke-width="1" stroke-opacity="0.06"/>
<line x1="1155" y1="262" x2="1155" y2="790" stroke="#242722" stroke-width="1" stroke-opacity="0.06"/>
<line x1="265" y1="262" x2="265" y2="790" stroke="#242722" stroke-width="1" stroke-opacity="0.06"/>
<line x1="1335" y1="262" x2="1335" y2="790" stroke="#242722" stroke-width="1" stroke-opacity="0.06"/>
<line x1="85" y1="262" x2="85" y2="790" stroke="#242722" stroke-width="1" stroke-opacity="0.06"/>
<line x1="1515" y1="262" x2="1515" y2="790" stroke="#242722" stroke-width="1" stroke-opacity="0.06"/>
<rect x="715" y="92" width="170" height="698" fill="#C8C2B6"/>
<rect x="715" y="92" width="170" height="698" fill="#F3F0E8" fill-opacity="0.3"/>
<rect x="715" y="92" width="170" height="14" fill="#242722" fill-opacity="0.14"/>
<rect x="715" y="92" width="10" height="698" fill="#242722" fill-opacity="0.1"/>
<rect x="707" y="240" width="8" height="550" fill="#242722" fill-opacity="0.16"/>
<rect x="877" y="92" width="8" height="698" fill="#F3F0E8" fill-opacity="0.2"/>
<line x1="715" y1="92" x2="715" y2="790" stroke="#242722" stroke-width="1" stroke-opacity="0.25"/>
<line x1="885" y1="92" x2="885" y2="790" stroke="#242722" stroke-width="1" stroke-opacity="0.25"/>
<rect x="771.5" y="672.75" width="57" height="71" fill="#242722" fill-opacity="0.22"/>
<rect x="777.5" y="678.75" width="45" height="65" fill="#242722" fill-opacity="0.82"/>
<rect x="780.5" y="681.75" width="39" height="27.3" fill="#F3F0E8" fill-opacity="0.1"/>
<rect x="777.5" y="709.25" width="45" height="4" fill="#F3F0E8" fill-opacity="0.85"/>
<rect x="767.5" y="743.75" width="65" height="6" fill="#D5C2A3"/>
<rect x="767.5" y="743.75" width="65" height="6" fill="#F3F0E8" fill-opacity="0.35"/>
<rect x="767.5" y="749.75" width="65" height="5" fill="#242722" fill-opacity="0.18"/>
<rect x="771.5" y="535.25" width="57" height="71" fill="#242722" fill-opacity="0.22"/>
<rect x="777.5" y="541.25" width="45" height="65" fill="#242722" fill-opacity="0.82"/>
<rect x="780.5" y="544.25" width="39" height="27.3" fill="#F3F0E8" fill-opacity="0.1"/>
<rect x="777.5" y="571.75" width="45" height="4" fill="#F3F0E8" fill-opacity="0.85"/>
<rect x="767.5" y="606.25" width="65" height="6" fill="#D5C2A3"/>
<rect x="767.5" y="606.25" width="65" height="6" fill="#F3F0E8" fill-opacity="0.35"/>
<rect x="767.5" y="612.25" width="65" height="5" fill="#242722" fill-opacity="0.18"/>
<rect x="771.5" y="397.75" width="57" height="71" fill="#242722" fill-opacity="0.22"/>
<rect x="777.5" y="403.75" width="45" height="65" fill="#242722" fill-opacity="0.82"/>
<rect x="780.5" y="406.75" width="39" height="27.3" fill="#F3F0E8" fill-opacity="0.1"/>
<rect x="777.5" y="434.25" width="45" height="4" fill="#F3F0E8" fill-opacity="0.85"/>
<rect x="767.5" y="468.75" width="65" height="6" fill="#D5C2A3"/>
<rect x="767.5" y="468.75" width="65" height="6" fill="#F3F0E8" fill-opacity="0.35"/>
<rect x="767.5" y="474.75" width="65" height="5" fill="#242722" fill-opacity="0.18"/>
<rect x="771.5" y="260.25" width="57" height="71" fill="#242722" fill-opacity="0.22"/>
<rect x="777.5" y="266.25" width="45" height="65" fill="#242722" fill-opacity="0.82"/>
<rect x="780.5" y="269.25" width="39" height="27.3" fill="#F3F0E8" fill-opacity="0.1"/>
<rect x="777.5" y="296.75" width="45" height="4" fill="#F3F0E8" fill-opacity="0.85"/>
<rect x="767.5" y="331.25" width="65" height="6" fill="#D5C2A3"/>
<rect x="767.5" y="331.25" width="65" height="6" fill="#F3F0E8" fill-opacity="0.35"/>
<rect x="767.5" y="337.25" width="65" height="5" fill="#242722" fill-opacity="0.18"/>
<rect x="691" y="666.5" width="218" height="27.5" fill="#242722" fill-opacity="0.2"/>
<rect x="691" y="666.5" width="218" height="10" fill="#242722" fill-opacity="0.15"/>
<rect x="755" y="670" width="90" height="120" fill="#242722" fill-opacity="0.24"/>
<rect x="765" y="680" width="70" height="110" fill="#405448"/>
<rect x="773" y="690" width="54" height="57.2" fill="#242722" fill-opacity="0.82"/>
<rect x="776" y="693" width="48" height="24.2" fill="#F3F0E8" fill-opacity="0.14"/>
<rect x="798.5" y="690" width="3" height="57.2" fill="#405448"/>
<rect x="813" y="748.2" width="5" height="25" fill="#FBFAF6" fill-opacity="0.8"/>
<rect x="765" y="758.2" width="70" height="4" fill="#242722" fill-opacity="0.2"/>
<rect x="765" y="776" width="70" height="14" fill="#242722" fill-opacity="0.35"/>
<rect x="839" y="670" width="39.5" height="120" fill="#242722" fill-opacity="0.24"/>
<rect x="845" y="680" width="27.5" height="110" fill="#242722" fill-opacity="0.82"/>
<rect x="848" y="683" width="21.5" height="38.5" fill="#F3F0E8" fill-opacity="0.12"/>
<rect x="845" y="748.2" width="27.5" height="4" fill="#F3F0E8" fill-opacity="0.7"/>
<rect x="685" y="652.5" width="230" height="14" fill="#242722" fill-opacity="0.7"/>
<rect x="685" y="652.5" width="230" height="4" fill="#F3F0E8" fill-opacity="0.3"/>
<rect x="685" y="661.5" width="230" height="5" fill="#242722" fill-opacity="0.3"/>
<rect x="734" y="692.5" width="21" height="15" fill="#FBFAF6"/>
<line x1="734" y1="692.5" x2="755" y2="692.5" stroke="#242722" stroke-width="1" stroke-opacity="0.35"/>
<line x1="734" y1="707.5" x2="755" y2="707.5" stroke="#242722" stroke-width="1" stroke-opacity="0.35"/>
<line x1="734" y1="692.5" x2="734" y2="707.5" stroke="#242722" stroke-width="1" stroke-opacity="0.35"/>
<line x1="755" y1="692.5" x2="755" y2="707.5" stroke="#242722" stroke-width="1" stroke-opacity="0.35"/>
<rect x="894.5" y="695" width="14" height="20" fill="#242722" fill-opacity="0.7"/>
<line x1="693" y1="236" x2="693" y2="790" stroke="#242722" stroke-width="5" stroke-opacity="0.5"/>
<line x1="693" y1="236" x2="693" y2="790" stroke="#F3F0E8" stroke-width="2" stroke-opacity="0.15"/>
<line x1="1460" y1="236" x2="1460" y2="790" stroke="#242722" stroke-width="5" stroke-opacity="0.5"/>
<rect x="0" y="770" width="1600" height="20" fill="#242722" fill-opacity="0.16"/>
<rect x="0" y="770" width="1600" height="3" fill="#242722" fill-opacity="0.1"/>
<rect x="0" y="790" width="1600" height="210" fill="#405448"/>
<rect x="0" y="790" width="1600" height="210" fill="#F3F0E8" fill-opacity="0.12"/>
<rect x="0" y="820" width="1600" height="14" fill="#242722" fill-opacity="0.05"/>
<rect x="0" y="864" width="1600" height="14" fill="#242722" fill-opacity="0.05"/>
<rect x="0" y="908" width="1600" height="14" fill="#242722" fill-opacity="0.05"/>
<rect x="0" y="952" width="1600" height="14" fill="#242722" fill-opacity="0.05"/>
<rect x="0" y="996" width="1600" height="14" fill="#242722" fill-opacity="0.05"/>
<polygon points="720,790 880,790 940,1000 660,1000" fill="#C8C2B6"/>
<polygon points="720,790 880,790 940,1000 660,1000" fill="#F3F0E8" fill-opacity="0.15"/>
<polygon points="720,790 726,790 668,1000 660,1000" fill="#242722" fill-opacity="0.18"/>
<polygon points="874,790 880,790 940,1000 932,1000" fill="#242722" fill-opacity="0.18"/>
<line x1="710" y1="825" x2="890" y2="825" stroke="#242722" stroke-width="1" stroke-opacity="0.12"/>
<line x1="700" y1="860" x2="900" y2="860" stroke="#242722" stroke-width="1" stroke-opacity="0.12"/>
<line x1="690" y1="895" x2="910" y2="895" stroke="#242722" stroke-width="1" stroke-opacity="0.12"/>
<line x1="680" y1="930" x2="920" y2="930" stroke="#242722" stroke-width="1" stroke-opacity="0.12"/>
<line x1="670" y1="965" x2="930" y2="965" stroke="#242722" stroke-width="1" stroke-opacity="0.12"/>
<polygon points="560,790 720,774 720,790 720,815 560,815" fill="#C8C2B6"/>
<polygon points="560,790 720,774 720,790" fill="#C8C2B6"/>
<rect x="560" y="790" width="160" height="25" fill="#F3F0E8" fill-opacity="0.1"/>
<rect x="560" y="809" width="160" height="6" fill="#242722" fill-opacity="0.2"/>
<polygon points="560,790 720,774 720,780 560,796" fill="#242722" fill-opacity="0.12"/>
<rect x="720" y="774" width="160" height="16" fill="#C8C2B6"/>
<rect x="720" y="774" width="160" height="16" fill="#F3F0E8" fill-opacity="0.25"/>
<rect x="720" y="787" width="160" height="3" fill="#242722" fill-opacity="0.15"/>
<line x1="560" y1="742.5" x2="714" y2="726.5" stroke="#242722" stroke-width="4" stroke-opacity="0.75"/>
<line x1="560" y1="763.88" x2="714" y2="747.88" stroke="#242722" stroke-width="2.5" stroke-opacity="0.6"/>
<line x1="560" y1="790" x2="560" y2="742.5" stroke="#242722" stroke-width="3" stroke-opacity="0.75"/>
<line x1="611.33" y1="784.67" x2="611.33" y2="737.17" stroke="#242722" stroke-width="3" stroke-opacity="0.75"/>
<line x1="662.67" y1="779.33" x2="662.67" y2="731.83" stroke="#242722" stroke-width="3" stroke-opacity="0.75"/>
<line x1="714" y1="774" x2="714" y2="726.5" stroke="#242722" stroke-width="3" stroke-opacity="0.75"/>
<line x1="714" y1="726.5" x2="714" y2="774" stroke="#242722" stroke-width="3" stroke-opacity="0.75"/>
<rect x="985" y="893.5" width="170" height="14" fill="#242722" fill-opacity="0.18"/>
<rect x="995" y="835" width="130" height="62.5" fill="#242722" fill-opacity="0.6"/>
<rect x="995" y="827" width="144" height="8" fill="#242722" fill-opacity="0.72"/>
<rect x="1125" y="835" width="14" height="62.5" fill="#242722" fill-opacity="0.75"/>
<line x1="999" y1="847" x2="1121" y2="847" stroke="#F3F0E8" stroke-width="2" stroke-opacity="0.22"/>
<line x1="999" y1="859" x2="1121" y2="859" stroke="#F3F0E8" stroke-width="2" stroke-opacity="0.22"/>
<line x1="999" y1="871" x2="1121" y2="871" stroke="#F3F0E8" stroke-width="2" stroke-opacity="0.22"/>
<line x1="999" y1="883" x2="1121" y2="883" stroke="#F3F0E8" stroke-width="2" stroke-opacity="0.22"/>
<rect x="1058" y="835" width="4" height="62.5" fill="#242722" fill-opacity="0.5"/>
<rect x="995" y="827" width="144" height="3" fill="#F3F0E8" fill-opacity="0.3"/>
<circle cx="955" cy="797.5" r="21" fill="#405448"/>
<circle cx="959.2" cy="794.35" r="14.7" fill="#405448"/>
<rect x="934" y="797.5" width="42" height="18.9" fill="#242722" fill-opacity="0.16"/>
<circle cx="955" cy="797.5" r="21" fill="#242722" fill-opacity="0.18"/>
<circle cx="949.75" cy="791.2" r="10.5" fill="#F3F0E8" fill-opacity="0.08"/>
<circle cx="995" cy="801" r="25" fill="#405448"/>
<circle cx="1000" cy="797.25" r="17.5" fill="#405448"/>
<rect x="970" y="801" width="50" height="22.5" fill="#242722" fill-opacity="0.16"/>
<circle cx="995" cy="801" r="25" fill="#242722" fill-opacity="0.18"/>
<circle cx="988.75" cy="793.5" r="12.5" fill="#F3F0E8" fill-opacity="0.08"/>
<circle cx="1050" cy="796" r="19" fill="#405448"/>
<circle cx="1053.8" cy="793.15" r="13.3" fill="#405448"/>
<rect x="1031" y="796" width="38" height="17.1" fill="#242722" fill-opacity="0.16"/>
<circle cx="1050" cy="796" r="19" fill="#242722" fill-opacity="0.18"/>
<circle cx="1045.25" cy="790.3" r="9.5" fill="#F3F0E8" fill-opacity="0.08"/>
<circle cx="505" cy="799" r="23" fill="#405448"/>
<circle cx="509.6" cy="795.55" r="16.1" fill="#405448"/>
<rect x="482" y="799" width="46" height="20.7" fill="#242722" fill-opacity="0.16"/>
<circle cx="505" cy="799" r="23" fill="#242722" fill-opacity="0.18"/>
<circle cx="499.25" cy="792.1" r="11.5" fill="#F3F0E8" fill-opacity="0.08"/>
<circle cx="455" cy="796" r="20" fill="#405448"/>
<circle cx="459" cy="793" r="14" fill="#405448"/>
<rect x="435" y="796" width="40" height="18" fill="#242722" fill-opacity="0.16"/>
<circle cx="455" cy="796" r="20" fill="#242722" fill-opacity="0.18"/>
<circle cx="450" cy="790" r="10" fill="#F3F0E8" fill-opacity="0.08"/>
<circle cx="415" cy="800" r="25" fill="#405448"/>
<circle cx="420" cy="796.25" r="17.5" fill="#405448"/>
<rect x="390" y="800" width="50" height="22.5" fill="#242722" fill-opacity="0.16"/>
<circle cx="415" cy="800" r="25" fill="#242722" fill-opacity="0.18"/>
<circle cx="408.75" cy="792.5" r="12.5" fill="#F3F0E8" fill-opacity="0.08"/>
<rect x="0" y="930" width="1600" height="70" fill="#C8C2B6"/>
<rect x="0" y="930" width="1600" height="70" fill="#F3F0E8" fill-opacity="0.1"/>
<rect x="0" y="930" width="1600" height="5" fill="#242722" fill-opacity="0.22"/>
<rect x="0" y="978" width="1600" height="22" fill="#242722" fill-opacity="0.12"/>
<line x1="40" y1="935" x2="40" y2="978" stroke="#242722" stroke-width="1" stroke-opacity="0.1"/>
<line x1="200" y1="935" x2="200" y2="978" stroke="#242722" stroke-width="1" stroke-opacity="0.1"/>
<line x1="360" y1="935" x2="360" y2="978" stroke="#242722" stroke-width="1" stroke-opacity="0.1"/>
<line x1="520" y1="935" x2="520" y2="978" stroke="#242722" stroke-width="1" stroke-opacity="0.1"/>
<line x1="680" y1="935" x2="680" y2="978" stroke="#242722" stroke-width="1" stroke-opacity="0.1"/>
<line x1="840" y1="935" x2="840" y2="978" stroke="#242722" stroke-width="1" stroke-opacity="0.1"/>
<line x1="1000" y1="935" x2="1000" y2="978" stroke="#242722" stroke-width="1" stroke-opacity="0.1"/>
<line x1="1160" y1="935" x2="1160" y2="978" stroke="#242722" stroke-width="1" stroke-opacity="0.1"/>
<line x1="1320" y1="935" x2="1320" y2="978" stroke="#242722" stroke-width="1" stroke-opacity="0.1"/>
<line x1="1480" y1="935" x2="1480" y2="978" stroke="#242722" stroke-width="1" stroke-opacity="0.1"/>
<rect x="0" y="0" width="1600" height="377.5" fill="#F3F0E8" fill-opacity="0.08"/>
</svg>
