<svg xmlns="http://www.w3.org/2000/svg" viewBox="0 0 1600 1200" width="1600" height="1200" role="img" aria-labelledby="t d">
<title id="t">Site inspection opening-up</title>
<desc id="d">A sandstone rear wall with two sash windows, a rectangular area of facing stone removed in the centre to expose the rubble core behind, a ladder leaning against the wall, and two stone samples and a bucket on the pavement.</desc>
<rect x="0" y="-20" width="1600" height="1040" fill="#C8C2B6"/>
<rect x="0" y="-20" width="176" height="66" fill="#D5C2A3"/>
<rect x="181" y="-20" width="176" height="66" fill="#D5C2A3"/>
<rect x="181" y="-20" width="176" height="66" fill="#242722" fill-opacity="0.07500000000000001"/>
<rect x="362" y="-20" width="176" height="66" fill="#D5C2A3"/>
<rect x="362" y="-20" width="176" height="66" fill="#242722" fill-opacity="0.025"/>
<rect x="543" y="-20" width="176" height="66" fill="#D5C2A3"/>
<rect x="543" y="-20" width="176" height="66" fill="#242722" fill-opacity="0.1"/>
<rect x="724" y="-20" width="176" height="66" fill="#D5C2A3"/>
<rect x="724" y="-20" width="176" height="66" fill="#242722" fill-opacity="0.05"/>
<rect x="905" y="-20" width="176" height="66" fill="#D5C2A3"/>
<rect x="905" y="-20" width="176" height="66" fill="#242722" fill-opacity="0.025"/>
<rect x="1086" y="-20" width="176" height="66" fill="#D5C2A3"/>
<rect x="1086" y="-20" width="176" height="66" fill="#242722" fill-opacity="0.1"/>
<rect x="1267" y="-20" width="176" height="66" fill="#D5C2A3"/>
<rect x="1267" y="-20" width="176" height="66" fill="#242722" fill-opacity="0.05"/>
<rect x="1448" y="-20" width="152" height="66" fill="#D5C2A3"/>
<rect x="0" y="51" width="88" height="66" fill="#D5C2A3"/>
<rect x="0" y="51" width="88" height="66" fill="#242722" fill-opacity="-0.05"/>
<rect x="93" y="51" width="176" height="66" fill="#D5C2A3"/>
<rect x="93" y="51" width="176" height="66" fill="#242722" fill-opacity="0.025"/>
<rect x="274" y="51" width="176" height="66" fill="#D5C2A3"/>
<rect x="274" y="51" width="176" height="66" fill="#242722" fill-opacity="0.1"/>
<rect x="455" y="51" width="176" height="66" fill="#D5C2A3"/>
<rect x="455" y="51" width="176" height="66" fill="#242722" fill-opacity="0.07500000000000001"/>
<rect x="636" y="51" width="176" height="66" fill="#D5C2A3"/>
<rect x="636" y="51" width="176" height="66" fill="#242722" fill-opacity="0.025"/>
<rect x="817" y="51" width="176" height="66" fill="#D5C2A3"/>
<rect x="817" y="51" width="176" height="66" fill="#242722" fill-opacity="0.1"/>
<rect x="998" y="51" width="176" height="66" fill="#D5C2A3"/>
<rect x="998" y="51" width="176" height="66" fill="#242722" fill-opacity="0.05"/>
<rect x="1179" y="51" width="176" height="66" fill="#D5C2A3"/>
<rect x="1360" y="51" width="176" height="66" fill="#D5C2A3"/>
<rect x="1360" y="51" width="176" height="66" fill="#242722" fill-opacity="0.07500000000000001"/>
<rect x="1541" y="51" width="59" height="66" fill="#D5C2A3"/>
<rect x="1541" y="51" width="59" height="66" fill="#242722" fill-opacity="0.025"/>
<rect x="0" y="122" width="176" height="66" fill="#D5C2A3"/>
<rect x="0" y="122" width="176" height="66" fill="#242722" fill-opacity="0.1"/>
<rect x="181" y="122" width="176" height="66" fill="#D5C2A3"/>
<rect x="181" y="122" width="176" height="66" fill="#242722" fill-opacity="0.05"/>
<rect x="362" y="122" width="176" height="66" fill="#D5C2A3"/>
<rect x="543" y="122" width="176" height="66" fill="#D5C2A3"/>
<rect x="543" y="122" width="176" height="66" fill="#242722" fill-opacity="0.07500000000000001"/>
<rect x="724" y="122" width="176" height="66" fill="#D5C2A3"/>
<rect x="724" y="122" width="176" height="66" fill="#242722" fill-opacity="0.025"/>
<rect x="905" y="122" width="176" height="66" fill="#D5C2A3"/>
<rect x="1086" y="122" width="176" height="66" fill="#D5C2A3"/>
<rect x="1086" y="122" width="176" height="66" fill="#242722" fill-opacity="0.07500000000000001"/>
<rect x="1267" y="122" width="176" height="66" fill="#D5C2A3"/>
<rect x="1267" y="122" width="176" height="66" fill="#242722" fill-opacity="0.025"/>
<rect x="1448" y="122" width="152" height="66" fill="#D5C2A3"/>
<rect x="1448" y="122" width="152" height="66" fill="#242722" fill-opacity="0.1"/>
<rect x="0" y="193" width="88" height="66" fill="#D5C2A3"/>
<rect x="0" y="193" width="88" height="66" fill="#242722" fill-opacity="0.05"/>
<rect x="93" y="193" width="176" height="66" fill="#D5C2A3"/>
<rect x="274" y="193" width="176" height="66" fill="#D5C2A3"/>
<rect x="274" y="193" width="176" height="66" fill="#242722" fill-opacity="0.07500000000000001"/>
<rect x="455" y="193" width="176" height="66" fill="#D5C2A3"/>
<rect x="455" y="193" width="176" height="66" fill="#242722" fill-opacity="0.05"/>
<rect x="636" y="193" width="176" height="66" fill="#D5C2A3"/>
<rect x="817" y="193" width="176" height="66" fill="#D5C2A3"/>
<rect x="817" y="193" width="176" height="66" fill="#242722" fill-opacity="0.07500000000000001"/>
<rect x="998" y="193" width="176" height="66" fill="#D5C2A3"/>
<rect x="998" y="193" width="176" height="66" fill="#242722" fill-opacity="0.025"/>
<rect x="1179" y="193" width="176" height="66" fill="#D5C2A3"/>
<rect x="1179" y="193" width="176" height="66" fill="#242722" fill-opacity="0.1"/>
<rect x="1360" y="193" width="176" height="66" fill="#D5C2A3"/>
<rect x="1360" y="193" width="176" height="66" fill="#242722" fill-opacity="0.05"/>
<rect x="1541" y="193" width="59" height="66" fill="#D5C2A3"/>
<rect x="0" y="264" width="176" height="66" fill="#D5C2A3"/>
<rect x="0" y="264" width="176" height="66" fill="#242722" fill-opacity="0.07500000000000001"/>
<rect x="181" y="264" width="176" height="66" fill="#D5C2A3"/>
<rect x="181" y="264" width="176" height="66" fill="#242722" fill-opacity="0.025"/>
<rect x="362" y="264" width="176" height="66" fill="#D5C2A3"/>
<rect x="362" y="264" width="176" height="66" fill="#242722" fill-opacity="0.1"/>
<rect x="543" y="264" width="176" height="66" fill="#D5C2A3"/>
<rect x="543" y="264" width="176" height="66" fill="#242722" fill-opacity="0.05"/>
<rect x="724" y="264" width="176" height="66" fill="#D5C2A3"/>
<rect x="905" y="264" width="176" height="66" fill="#D5C2A3"/>
<rect x="905" y="264" width="176" height="66" fill="#242722" fill-opacity="0.1"/>
<rect x="1086" y="264" width="176" height="66" fill="#D5C2A3"/>
<rect x="1086" y="264" width="176" height="66" fill="#242722" fill-opacity="0.05"/>
<rect x="1267" y="264" width="176" height="66" fill="#D5C2A3"/>
<rect x="1448" y="264" width="152" height="66" fill="#D5C2A3"/>
<rect x="1448" y="264" width="152" height="66" fill="#242722" fill-opacity="0.07500000000000001"/>
<rect x="0" y="335" width="88" height="66" fill="#D5C2A3"/>
<rect x="0" y="335" width="88" height="66" fill="#242722" fill-opacity="0.025"/>
<rect x="93" y="335" width="176" height="66" fill="#D5C2A3"/>
<rect x="93" y="335" width="176" height="66" fill="#242722" fill-opacity="0.1"/>
<rect x="274" y="335" width="176" height="66" fill="#D5C2A3"/>
<rect x="274" y="335" width="176" height="66" fill="#242722" fill-opacity="0.05"/>
<rect x="455" y="335" width="176" height="66" fill="#D5C2A3"/>
<rect x="455" y="335" width="176" height="66" fill="#242722" fill-opacity="0.025"/>
<rect x="636" y="335" width="176" height="66" fill="#D5C2A3"/>
<rect x="636" y="335" width="176" height="66" fill="#242722" fill-opacity="0.1"/>
<rect x="817" y="335" width="176" height="66" fill="#D5C2A3"/>
<rect x="817" y="335" width="176" height="66" fill="#242722" fill-opacity="0.05"/>
<rect x="998" y="335" width="176" height="66" fill="#D5C2A3"/>
<rect x="1179" y="335" width="176" height="66" fill="#D5C2A3"/>
<rect x="1179" y="335" width="176" height="66" fill="#242722" fill-opacity="0.07500000000000001"/>
<rect x="1360" y="335" width="176" height="66" fill="#D5C2A3"/>
<rect x="1360" y="335" width="176" height="66" fill="#242722" fill-opacity="0.025"/>
<rect x="1541" y="335" width="59" height="66" fill="#D5C2A3"/>
<rect x="1541" y="335" width="59" height="66" fill="#242722" fill-opacity="0.1"/>
<rect x="0" y="406" width="176" height="66" fill="#D5C2A3"/>
<rect x="0" y="406" width="176" height="66" fill="#242722" fill-opacity="0.05"/>
<rect x="181" y="406" width="176" height="66" fill="#D5C2A3"/>
<rect x="362" y="406" width="176" height="66" fill="#D5C2A3"/>
<rect x="362" y="406" width="176" height="66" fill="#242722" fill-opacity="0.07500000000000001"/>
<rect x="543" y="406" width="176" height="66" fill="#D5C2A3"/>
<rect x="543" y="406" width="176" height="66" fill="#242722" fill-opacity="0.025"/>
<rect x="724" y="406" width="176" height="66" fill="#D5C2A3"/>
<rect x="724" y="406" width="176" height="66" fill="#242722" fill-opacity="0.1"/>
<rect x="905" y="406" width="176" height="66" fill="#D5C2A3"/>
<rect x="905" y="406" width="176" height="66" fill="#242722" fill-opacity="0.07500000000000001"/>
<rect x="1086" y="406" width="176" height="66" fill="#D5C2A3"/>
<rect x="1086" y="406" width="176" height="66" fill="#242722" fill-opacity="0.025"/>
<rect x="1267" y="406" width="176" height="66" fill="#D5C2A3"/>
<rect x="1267" y="406" width="176" height="66" fill="#242722" fill-opacity="0.1"/>
<rect x="1448" y="406" width="152" height="66" fill="#D5C2A3"/>
<rect x="1448" y="406" width="152" height="66" fill="#242722" fill-opacity="0.05"/>
<rect x="0" y="477" width="88" height="66" fill="#D5C2A3"/>
<rect x="93" y="477" width="176" height="66" fill="#D5C2A3"/>
<rect x="93" y="477" width="176" height="66" fill="#242722" fill-opacity="0.07500000000000001"/>
<rect x="274" y="477" width="176" height="66" fill="#D5C2A3"/>
<rect x="274" y="477" width="176" height="66" fill="#242722" fill-opacity="0.025"/>
<rect x="455" y="477" width="176" height="66" fill="#D5C2A3"/>
<rect x="636" y="477" width="176" height="66" fill="#D5C2A3"/>
<rect x="636" y="477" width="176" height="66" fill="#242722" fill-opacity="0.07500000000000001"/>
<rect x="817" y="477" width="176" height="66" fill="#D5C2A3"/>
<rect x="817" y="477" width="176" height="66" fill="#242722" fill-opacity="0.025"/>
<rect x="998" y="477" width="176" height="66" fill="#D5C2A3"/>
<rect x="998" y="477" width="176" height="66" fill="#242722" fill-opacity="0.1"/>
<rect x="1179" y="477" width="176" height="66" fill="#D5C2A3"/>
<rect x="1179" y="477" width="176" height="66" fill="#242722" fill-opacity="0.05"/>
<rect x="1360" y="477" width="176" height="66" fill="#D5C2A3"/>
<rect x="1541" y="477" width="59" height="66" fill="#D5C2A3"/>
<rect x="1541" y="477" width="59" height="66" fill="#242722" fill-opacity="0.07500000000000001"/>
<rect x="0" y="548" width="176" height="66" fill="#D5C2A3"/>
<rect x="0" y="548" width="176" height="66" fill="#242722" fill-opacity="0.025"/>
<rect x="181" y="548" width="176" height="66" fill="#D5C2A3"/>
<rect x="181" y="548" width="176" height="66" fill="#242722" fill-opacity="0.1"/>
<rect x="362" y="548" width="176" height="66" fill="#D5C2A3"/>
<rect x="362" y="548" width="176" height="66" fill="#242722" fill-opacity="0.05"/>
<rect x="543" y="548" width="176" height="66" fill="#D5C2A3"/>
<rect x="724" y="548" width="176" height="66" fill="#D5C2A3"/>
<rect x="724" y="548" width="176" height="66" fill="#242722" fill-opacity="0.07500000000000001"/>
<rect x="905" y="548" width="176" height="66" fill="#D5C2A3"/>
<rect x="905" y="548" width="176" height="66" fill="#242722" fill-opacity="0.05"/>
<rect x="1086" y="548" width="176" height="66" fill="#D5C2A3"/>
<rect x="1267" y="548" width="176" height="66" fill="#D5C2A3"/>
<rect x="1267" y="548" width="176" height="66" fill="#242722" fill-opacity="0.07500000000000001"/>
<rect x="1448" y="548" width="152" height="66" fill="#D5C2A3"/>
<rect x="1448" y="548" width="152" height="66" fill="#242722" fill-opacity="0.025"/>
<rect x="0" y="619" width="88" height="66" fill="#D5C2A3"/>
<rect x="0" y="619" width="88" height="66" fill="#242722" fill-opacity="0.1"/>
<rect x="93" y="619" width="176" height="66" fill="#D5C2A3"/>
<rect x="93" y="619" width="176" height="66" fill="#242722" fill-opacity="0.05"/>
<rect x="274" y="619" width="176" height="66" fill="#D5C2A3"/>
<rect x="455" y="619" width="176" height="66" fill="#D5C2A3"/>
<rect x="455" y="619" width="176" height="66" fill="#242722" fill-opacity="0.1"/>
<rect x="636" y="619" width="176" height="66" fill="#D5C2A3"/>
<rect x="636" y="619" width="176" height="66" fill="#242722" fill-opacity="0.05"/>
<rect x="817" y="619" width="176" height="66" fill="#D5C2A3"/>
<rect x="998" y="619" width="176" height="66" fill="#D5C2A3"/>
<rect x="998" y="619" width="176" height="66" fill="#242722" fill-opacity="0.07500000000000001"/>
<rect x="1179" y="619" width="176" height="66" fill="#D5C2A3"/>
<rect x="1179" y="619" width="176" height="66" fill="#242722" fill-opacity="0.025"/>
<rect x="1360" y="619" width="176" height="66" fill="#D5C2A3"/>
<rect x="1360" y="619" width="176" height="66" fill="#242722" fill-opacity="0.1"/>
<rect x="1541" y="619" width="59" height="66" fill="#D5C2A3"/>
<rect x="1541" y="619" width="59" height="66" fill="#242722" fill-opacity="0.05"/>
<rect x="0" y="690" width="176" height="66" fill="#D5C2A3"/>
<rect x="181" y="690" width="176" height="66" fill="#D5C2A3"/>
<rect x="181" y="690" width="176" height="66" fill="#242722" fill-opacity="0.07500000000000001"/>
<rect x="362" y="690" width="176" height="66" fill="#D5C2A3"/>
<rect x="362" y="690" width="176" height="66" fill="#242722" fill-opacity="0.025"/>
<rect x="543" y="690" width="176" height="66" fill="#D5C2A3"/>
<rect x="543" y="690" width="176" height="66" fill="#242722" fill-opacity="0.1"/>
<rect x="724" y="690" width="176" height="66" fill="#D5C2A3"/>
<rect x="724" y="690" width="176" height="66" fill="#242722" fill-opacity="0.05"/>
<rect x="905" y="690" width="176" height="66" fill="#D5C2A3"/>
<rect x="905" y="690" width="176" height="66" fill="#242722" fill-opacity="0.025"/>
<rect x="1086" y="690" width="176" height="66" fill="#D5C2A3"/>
<rect x="1086" y="690" width="176" height="66" fill="#242722" fill-opacity="0.1"/>
<rect x="1267" y="690" width="176" height="66" fill="#D5C2A3"/>
<rect x="1267" y="690" width="176" height="66" fill="#242722" fill-opacity="0.05"/>
<rect x="1448" y="690" width="152" height="66" fill="#D5C2A3"/>
<rect x="0" y="761" width="88" height="66" fill="#D5C2A3"/>
<rect x="0" y="761" width="88" height="66" fill="#242722" fill-opacity="0.07500000000000001"/>
<rect x="93" y="761" width="176" height="66" fill="#D5C2A3"/>
<rect x="93" y="761" width="176" height="66" fill="#242722" fill-opacity="0.025"/>
<rect x="274" y="761" width="176" height="66" fill="#D5C2A3"/>
<rect x="274" y="761" width="176" height="66" fill="#242722" fill-opacity="0.1"/>
<rect x="455" y="761" width="176" height="66" fill="#D5C2A3"/>
<rect x="455" y="761" width="176" height="66" fill="#242722" fill-opacity="0.07500000000000001"/>
<rect x="636" y="761" width="176" height="66" fill="#D5C2A3"/>
<rect x="636" y="761" width="176" height="66" fill="#242722" fill-opacity="0.025"/>
<rect x="817" y="761" width="176" height="66" fill="#D5C2A3"/>
<rect x="817" y="761" width="176" height="66" fill="#242722" fill-opacity="0.1"/>
<rect x="998" y="761" width="176" height="66" fill="#D5C2A3"/>
<rect x="998" y="761" width="176" height="66" fill="#242722" fill-opacity="0.05"/>
<rect x="1179" y="761" width="176" height="66" fill="#D5C2A3"/>
<rect x="1360" y="761" width="176" height="66" fill="#D5C2A3"/>
<rect x="1360" y="761" width="176" height="66" fill="#242722" fill-opacity="0.07500000000000001"/>
<rect x="1541" y="761" width="59" height="66" fill="#D5C2A3"/>
<rect x="1541" y="761" width="59" height="66" fill="#242722" fill-opacity="0.025"/>
<rect x="0" y="832" width="176" height="66" fill="#D5C2A3"/>
<rect x="0" y="832" width="176" height="66" fill="#242722" fill-opacity="0.1"/>
<rect x="181" y="832" width="176" height="66" fill="#D5C2A3"/>
<rect x="181" y="832" width="176" height="66" fill="#242722" fill-opacity="0.05"/>
<rect x="362" y="832" width="176" height="66" fill="#D5C2A3"/>
<rect x="543" y="832" width="176" height="66" fill="#D5C2A3"/>
<rect x="543" y="832" width="176" height="66" fill="#242722" fill-opacity="0.07500000000000001"/>
<rect x="724" y="832" width="176" height="66" fill="#D5C2A3"/>
<rect x="724" y="832" width="176" height="66" fill="#242722" fill-opacity="0.025"/>
<rect x="905" y="832" width="176" height="66" fill="#D5C2A3"/>
<rect x="1086" y="832" width="176" height="66" fill="#D5C2A3"/>
<rect x="1086" y="832" width="176" height="66" fill="#242722" fill-opacity="0.07500000000000001"/>
<rect x="1267" y="832" width="176" height="66" fill="#D5C2A3"/>
<rect x="1267" y="832" width="176" height="66" fill="#242722" fill-opacity="0.025"/>
<rect x="1448" y="832" width="152" height="66" fill="#D5C2A3"/>
<rect x="1448" y="832" width="152" height="66" fill="#242722" fill-opacity="0.1"/>
<rect x="0" y="903" width="88" height="66" fill="#D5C2A3"/>
<rect x="0" y="903" width="88" height="66" fill="#242722" fill-opacity="0.05"/>
<rect x="93" y="903" width="176" height="66" fill="#D5C2A3"/>
<rect x="274" y="903" width="176" height="66" fill="#D5C2A3"/>
<rect x="274" y="903" width="176" height="66" fill="#242722" fill-opacity="0.07500000000000001"/>
<rect x="455" y="903" width="176" height="66" fill="#D5C2A3"/>
<rect x="455" y="903" width="176" height="66" fill="#242722" fill-opacity="0.05"/>
<rect x="636" y="903" width="176" height="66" fill="#D5C2A3"/>
<rect x="817" y="903" width="176" height="66" fill="#D5C2A3"/>
<rect x="817" y="903" width="176" height="66" fill="#242722" fill-opacity="0.07500000000000001"/>
<rect x="998" y="903" width="176" height="66" fill="#D5C2A3"/>
<rect x="998" y="903" width="176" height="66" fill="#242722" fill-opacity="0.025"/>
<rect x="1179" y="903" width="176" height="66" fill="#D5C2A3"/>
<rect x="1179" y="903" width="176" height="66" fill="#242722" fill-opacity="0.1"/>
<rect x="1360" y="903" width="176" height="66" fill="#D5C2A3"/>
<rect x="1360" y="903" width="176" height="66" fill="#242722" fill-opacity="0.05"/>
<rect x="1541" y="903" width="59" height="66" fill="#D5C2A3"/>
<rect x="0" y="974" width="176" height="46" fill="#D5C2A3"/>
<rect x="0" y="974" width="176" height="46" fill="#242722" fill-opacity="0.07500000000000001"/>
<rect x="181" y="974" width="176" height="46" fill="#D5C2A3"/>
<rect x="181" y="974" width="176" height="46" fill="#242722" fill-opacity="0.025"/>
<rect x="362" y="974" width="176" height="46" fill="#D5C2A3"/>
<rect x="362" y="974" width="176" height="46" fill="#242722" fill-opacity="0.1"/>
<rect x="543" y="974" width="176" height="46" fill="#D5C2A3"/>
<rect x="543" y="974" width="176" height="46" fill="#242722" fill-opacity="0.05"/>
<rect x="724" y="974" width="176" height="46" fill="#D5C2A3"/>
<rect x="905" y="974" width="176" height="46" fill="#D5C2A3"/>
<rect x="905" y="974" width="176" height="46" fill="#242722" fill-opacity="0.1"/>
<rect x="1086" y="974" width="176" height="46" fill="#D5C2A3"/>
<rect x="1086" y="974" width="176" height="46" fill="#242722" fill-opacity="0.05"/>
<rect x="1267" y="974" width="176" height="46" fill="#D5C2A3"/>
<rect x="1448" y="974" width="152" height="46" fill="#D5C2A3"/>
<rect x="1448" y="974" width="152" height="46" fill="#242722" fill-opacity="0.07500000000000001"/>
<rect x="0" y="0" width="420" height="1020" fill="#242722" fill-opacity="0.04"/>
<rect x="1100" y="0" width="500" height="520" fill="#F3F0E8" fill-opacity="0.08"/>
<rect x="0" y="960" width="1600" height="40" fill="#242722" fill-opacity="0.1"/>
<rect x="0" y="920" width="1600" height="40" fill="#242722" fill-opacity="0.07500000000000001"/>
<rect x="0" y="880" width="1600" height="40" fill="#242722" fill-opacity="0.05"/>
<rect x="0" y="840" width="1600" height="40" fill="#242722" fill-opacity="0.025"/>
<rect x="140" y="100" width="210" height="340" fill="#242722" fill-opacity="0.22"/>
<rect x="150" y="110" width="190" height="330" fill="#242722" fill-opacity="0.82"/>
<rect x="153" y="113" width="184" height="138.6" fill="#F3F0E8" fill-opacity="0.1"/>
<rect x="150" y="273" width="190" height="4" fill="#F3F0E8" fill-opacity="0.85"/>
<rect x="243.5" y="110" width="3" height="330" fill="#F3F0E8" fill-opacity="0.65"/>
<rect x="136" y="440" width="218" height="7" fill="#D5C2A3"/>
<rect x="136" y="440" width="218" height="7" fill="#F3F0E8" fill-opacity="0.35"/>
<rect x="136" y="447" width="218" height="6" fill="#242722" fill-opacity="0.18"/>
<rect x="1250" y="100" width="210" height="340" fill="#242722" fill-opacity="0.22"/>
<rect x="1260" y="110" width="190" height="330" fill="#242722" fill-opacity="0.82"/>
<rect x="1263" y="113" width="184" height="138.6" fill="#F3F0E8" fill-opacity="0.1"/>
<rect x="1260" y="273" width="190" height="4" fill="#F3F0E8" fill-opacity="0.85"/>
<rect x="1353.5" y="110" width="3" height="330" fill="#F3F0E8" fill-opacity="0.65"/>
<rect x="1246" y="440" width="218" height="7" fill="#D5C2A3"/>
<rect x="1246" y="440" width="218" height="7" fill="#F3F0E8" fill-opacity="0.35"/>
<rect x="1246" y="447" width="218" height="6" fill="#242722" fill-opacity="0.18"/>
<polygon points="534,464 594,452 684,460 774,448 864,458 964,450 1034,462 1094,454 1100,542 1090,632 1102,722 1094,792 1088,852 1004,860 914,850 824,858 734,852 644,862 564,854 526,772 538,682 528,592 536,512" fill="#D5C2A3"/>
<polygon points="534,464 594,452 684,460 774,448 864,458 964,450 1034,462 1094,454 1100,542 1090,632 1102,722 1094,792 1088,852 1004,860 914,850 824,858 734,852 644,862 564,854 526,772 538,682 528,592 536,512" fill="#F3F0E8" fill-opacity="0.2"/>
<polygon points="520,452 580,440 670,448 760,436 850,446 950,438 1020,450 1080,442 1086,530 1076,620 1088,710 1080,780 1074,840 990,848 900,838 810,846 720,840 630,850 550,842 512,760 524,670 514,580 522,500" fill="#C8C2B6"/>
<polygon points="520,452 580,440 670,448 760,436 850,446 950,438 1020,450 1080,442 1086,530 1076,620 1088,710 1080,780 1074,840 990,848 900,838 810,846 720,840 630,850 550,842 512,760 524,670 514,580 522,500" fill="#242722" fill-opacity="0.35"/>
<polygon points="526,616 640,606 780,612 940,602 1074,610 1074,686 920,694 750,684 610,692 526,680" fill="#242722" fill-opacity="0.74"/>
<rect x="526" y="686" width="548" height="8" fill="#242722" fill-opacity="0.2"/>
<polygon points="664.1,489.92 645.62,509.06 588.48,511.89 538.47,491.1 537.28,470.29 582.49,453 641.66,456.81" fill="#C8C2B6"/>
<polygon points="664.1,489.92 645.62,509.06 588.48,511.89 538.47,491.1 537.28,470.29 582.49,453 641.66,456.81" fill="#242722" fill-opacity="0.06"/>
<polygon points="538.47,497.1 537.28,476.29 582.49,459 641.66,462.81 641.66,456.81 582.49,453 537.28,470.29 538.47,491.1" fill="#F3F0E8" fill-opacity="0.12"/>
<polygon points="737.68,478.89 719.46,510.06 691.92,518.61 675.31,507.29 676.85,472.2 695.67,450.94 727.5,462.04" fill="#D5C2A3"/>
<polygon points="737.68,478.89 719.46,510.06 691.92,518.61 675.31,507.29 676.85,472.2 695.67,450.94 727.5,462.04" fill="#242722" fill-opacity="0.14"/>
<polygon points="675.31,513.29 676.85,478.2 695.67,456.94 727.5,468.04 727.5,462.04 695.67,450.94 676.85,472.2 675.31,507.29" fill="#F3F0E8" fill-opacity="0.12"/>
<polygon points="823.74,486.89 813.34,514.36 770.34,522.17 749.93,508.07 754.06,475.53 785.12,451.59 810.02,454.99" fill="#D5C2A3"/>
<polygon points="823.74,486.89 813.34,514.36 770.34,522.17 749.93,508.07 754.06,475.53 785.12,451.59 810.02,454.99" fill="#242722" fill-opacity="0.1"/>
<polygon points="749.93,514.07 754.06,481.53 785.12,457.59 810.02,460.99 810.02,454.99 785.12,451.59 754.06,475.53 749.93,508.07" fill="#F3F0E8" fill-opacity="0.12"/>
<polygon points="928.07,493.97 909.39,523.93 880.96,522.15 843.91,504.54 840.08,473.16 884.31,449.78 915.42,456.46" fill="#C8C2B6"/>
<polygon points="928.07,493.97 909.39,523.93 880.96,522.15 843.91,504.54 840.08,473.16 884.31,449.78 915.42,456.46" fill="#242722" fill-opacity="0.18"/>
<polygon points="843.91,510.54 840.08,479.16 884.31,455.78 915.42,462.46 915.42,456.46 884.31,449.78 840.08,473.16 843.91,504.54" fill="#F3F0E8" fill-opacity="0.12"/>
<polygon points="1051.86,488.12 1022.38,519.91 985.21,524.27 944.23,491.8 946.05,455.9 973.83,440.17 1030.46,454.09" fill="#D5C2A3"/>
<polygon points="1051.86,488.12 1022.38,519.91 985.21,524.27 944.23,491.8 946.05,455.9 973.83,440.17 1030.46,454.09" fill="#242722" fill-opacity="0.06"/>
<polygon points="944.23,497.8 946.05,461.9 973.83,446.17 1030.46,460.09 1030.46,454.09 973.83,440.17 946.05,455.9 944.23,491.8" fill="#F3F0E8" fill-opacity="0.12"/>
<polygon points="693.09,571.44 669.8,589.47 621.21,600.79 581.95,578.59 573.61,551.8 623.68,527.8 669.62,531.34" fill="#C8C2B6"/>
<polygon points="693.09,571.44 669.8,589.47 621.21,600.79 581.95,578.59 573.61,551.8 623.68,527.8 669.62,531.34" fill="#242722" fill-opacity="0.2"/>
<polygon points="581.95,584.59 573.61,557.8 623.68,533.8 669.62,537.34 669.62,531.34 623.68,527.8 573.61,551.8 581.95,578.59" fill="#F3F0E8" fill-opacity="0.12"/>
<polygon points="836.33,558.13 803.76,593.13 741.59,599.27 697.83,575.92 712,555.42 758.11,533.49 813.91,540.76" fill="#D5C2A3"/>
<polygon points="836.33,558.13 803.76,593.13 741.59,599.27 697.83,575.92 712,555.42 758.11,533.49 813.91,540.76" fill="#242722" fill-opacity="0.26"/>
<polygon points="697.83,581.92 712,561.42 758.11,539.49 813.91,546.76 813.91,540.76 758.11,533.49 712,555.42 697.83,575.92" fill="#F3F0E8" fill-opacity="0.12"/>
<polygon points="909.11,566.8 894.89,599.78 876,610.16 851.18,588.88 847.98,554.7 876.19,531.69 893.66,530.98" fill="#D5C2A3"/>
<polygon points="909.11,566.8 894.89,599.78 876,610.16 851.18,588.88 847.98,554.7 876.19,531.69 893.66,530.98" fill="#242722" fill-opacity="0.22"/>
<polygon points="851.18,594.88 847.98,560.7 876.19,537.69 893.66,536.98 893.66,530.98 876.19,531.69 847.98,554.7 851.18,588.88" fill="#F3F0E8" fill-opacity="0.12"/>
<polygon points="1015.08,570.04 991.46,605.38 972.58,614.48 935.4,587.08 936.28,547.74 969.73,525.74 992.14,538.85" fill="#C8C2B6"/>
<polygon points="1015.08,570.04 991.46,605.38 972.58,614.48 935.4,587.08 936.28,547.74 969.73,525.74 992.14,538.85" fill="#242722" fill-opacity="0.3"/>
<polygon points="935.4,593.08 936.28,553.74 969.73,531.74 992.14,544.85 992.14,538.85 969.73,525.74 936.28,547.74 935.4,587.08" fill="#F3F0E8" fill-opacity="0.12"/>
<polygon points="1064.01,564.02 1060.41,588.81 1037.8,595.55 1016.4,574.31 1014.4,549.49 1027.97,513.87 1054.97,526.54" fill="#D5C2A3"/>
<polygon points="1064.01,564.02 1060.41,588.81 1037.8,595.55 1016.4,574.31 1014.4,549.49 1027.97,513.87 1054.97,526.54" fill="#242722" fill-opacity="0.2"/>
<polygon points="1016.4,580.31 1014.4,555.49 1027.97,519.87 1054.97,532.54 1054.97,526.54 1027.97,513.87 1014.4,549.49 1016.4,574.31" fill="#F3F0E8" fill-opacity="0.12"/>
<polygon points="661.54,720.59 647.29,761.09 588.35,763.7 543.05,739.13 536.95,716.91 584.02,698.11 640.86,705.45" fill="#C8C2B6"/>
<polygon points="661.54,720.59 647.29,761.09 588.35,763.7 543.05,739.13 536.95,716.91 584.02,698.11 640.86,705.45" fill="#242722" fill-opacity="0.28"/>
<polygon points="543.05,745.13 536.95,722.91 584.02,704.11 640.86,711.45 640.86,705.45 584.02,698.11 536.95,716.91 543.05,739.13" fill="#F3F0E8" fill-opacity="0.12"/>
<polygon points="743.4,727.88 727.38,756.59 694.84,767.88 677.64,755.92 678.23,724.08 699.88,698.31 733.05,710.34" fill="#D5C2A3"/>
<polygon points="743.4,727.88 727.38,756.59 694.84,767.88 677.64,755.92 678.23,724.08 699.88,698.31 733.05,710.34" fill="#242722" fill-opacity="0.24"/>
<polygon points="677.64,761.92 678.23,730.08 699.88,704.31 733.05,716.34 733.05,710.34 699.88,698.31 678.23,724.08 677.64,755.92" fill="#F3F0E8" fill-opacity="0.12"/>
<polygon points="831.99,735.82 820.53,766.09 777.38,770.77 754.75,758.08 759.64,722.13 792.49,696.15 818.29,700.32" fill="#D5C2A3"/>
<polygon points="831.99,735.82 820.53,766.09 777.38,770.77 754.75,758.08 759.64,722.13 792.49,696.15 818.29,700.32" fill="#242722" fill-opacity="0.32"/>
<polygon points="754.75,764.08 759.64,728.13 792.49,702.15 818.29,706.32 818.29,700.32 792.49,696.15 759.64,722.13 754.75,758.08" fill="#F3F0E8" fill-opacity="0.12"/>
<polygon points="939.4,723.85 919.09,762.11 888.97,768.83 851.71,739.87 848.54,705.22 869.43,688.17 917.41,698.28" fill="#C8C2B6"/>
<polygon points="939.4,723.85 919.09,762.11 888.97,768.83 851.71,739.87 848.54,705.22 869.43,688.17 917.41,698.28" fill="#242722" fill-opacity="0.26"/>
<polygon points="851.71,745.87 848.54,711.22 869.43,694.17 917.41,704.28 917.41,698.28 869.43,688.17 848.54,705.22 851.71,739.87" fill="#F3F0E8" fill-opacity="0.12"/>
<polygon points="1046.26,731.85 1040.77,758.07 990.66,763.54 956.27,746.32 956.14,701.41 980.02,684.53 1022.73,696.88" fill="#D5C2A3"/>
<polygon points="1046.26,731.85 1040.77,758.07 990.66,763.54 956.27,746.32 956.14,701.41 980.02,684.53 1022.73,696.88" fill="#242722" fill-opacity="0.28"/>
<polygon points="956.27,752.32 956.14,707.41 980.02,690.53 1022.73,702.88 1022.73,696.88 980.02,684.53 956.14,701.41 956.27,746.32" fill="#F3F0E8" fill-opacity="0.12"/>
<polygon points="695.96,813.61 680.6,835.08 621.1,838.54 581.08,818.58 578.3,795.92 625.29,774.5 672.67,778.18" fill="#C8C2B6"/>
<polygon points="695.96,813.61 680.6,835.08 621.1,838.54 581.08,818.58 578.3,795.92 625.29,774.5 672.67,778.18" fill="#242722" fill-opacity="0.12"/>
<polygon points="581.08,824.58 578.3,801.92 625.29,780.5 672.67,784.18 672.67,778.18 625.29,774.5 578.3,795.92 581.08,818.58" fill="#F3F0E8" fill-opacity="0.12"/>
<polygon points="839.03,802.49 800.73,829.76 749.17,838.19 696.03,816.47 697.63,796.65 759.33,780.84 816.55,787.52" fill="#D5C2A3"/>
<polygon points="839.03,802.49 800.73,829.76 749.17,838.19 696.03,816.47 697.63,796.65 759.33,780.84 816.55,787.52" fill="#242722" fill-opacity="0.18"/>
<polygon points="696.03,822.47 697.63,802.65 759.33,786.84 816.55,793.52 816.55,787.52 759.33,780.84 697.63,796.65 696.03,816.47" fill="#F3F0E8" fill-opacity="0.12"/>
<polygon points="913.85,806.09 898.42,834.24 864.85,840.36 852.92,824.21 850.16,794.73 874.41,775.72 898.27,775.09" fill="#D5C2A3"/>
<polygon points="913.85,806.09 898.42,834.24 864.85,840.36 852.92,824.21 850.16,794.73 874.41,775.72 898.27,775.09" fill="#242722" fill-opacity="0.14"/>
<polygon points="852.92,830.21 850.16,800.73 874.41,781.72 898.27,781.09 898.27,775.09 874.41,775.72 850.16,794.73 852.92,824.21" fill="#F3F0E8" fill-opacity="0.12"/>
<polygon points="1018.4,812.85 997.51,843.32 977.73,850.92 943.47,825.19 941.35,792.57 976.51,773.97 1005.04,779.01" fill="#C8C2B6"/>
<polygon points="1018.4,812.85 997.51,843.32 977.73,850.92 943.47,825.19 941.35,792.57 976.51,773.97 1005.04,779.01" fill="#242722" fill-opacity="0.2"/>
<polygon points="943.47,831.19 941.35,798.57 976.51,779.97 1005.04,785.01 1005.04,779.01 976.51,773.97 941.35,792.57 943.47,825.19" fill="#F3F0E8" fill-opacity="0.12"/>
<polygon points="1060.58,806.4 1050.71,836.42 1037.79,833.37 1021.49,812.97 1021.15,780.12 1032.79,772.44 1051.86,776.06" fill="#D5C2A3"/>
<polygon points="1060.58,806.4 1050.71,836.42 1037.79,833.37 1021.49,812.97 1021.15,780.12 1032.79,772.44 1051.86,776.06" fill="#242722" fill-opacity="0.12"/>
<polygon points="1021.49,818.97 1021.15,786.12 1032.79,778.44 1051.86,782.06 1051.86,776.06 1032.79,772.44 1021.15,780.12 1021.49,812.97" fill="#F3F0E8" fill-opacity="0.12"/>
<polygon points="560,506 572,500 584,508 578,520 564,518" fill="#D5C2A3" fill-opacity="0.55"/>
<polygon points="657,567 669,561 681,569 675,581 661,579" fill="#D5C2A3" fill-opacity="0.55"/>
<polygon points="948,750 960,744 972,752 966,764 952,762" fill="#D5C2A3" fill-opacity="0.55"/>
<polygon points="565,811 577,805 589,813 583,825 569,823" fill="#D5C2A3" fill-opacity="0.55"/>
<polygon points="662,542 674,536 686,544 680,556 666,554" fill="#D5C2A3" fill-opacity="0.55"/>
<polygon points="953,725 965,719 977,727 971,739 957,737" fill="#D5C2A3" fill-opacity="0.55"/>
<polygon points="570,786 582,780 594,788 588,800 574,798" fill="#D5C2A3" fill-opacity="0.55"/>
<polygon points="667,517 679,511 691,519 685,531 671,529" fill="#D5C2A3" fill-opacity="0.55"/>
<polygon points="764,578 776,572 788,580 782,592 768,590" fill="#D5C2A3" fill-opacity="0.55"/>
<polygon points="512,436 1088,436 1088,464 512,464" fill="#242722" fill-opacity="0.22"/>
<polygon points="512,436 542,436 542,852 512,852" fill="#242722" fill-opacity="0.18"/>
<rect x="500" y="854" width="600" height="34" fill="#242722" fill-opacity="0.05"/>
<rect x="530" y="854" width="540" height="12" fill="#242722" fill-opacity="0.07"/>
<polygon points="551.6,871.36 561.6,863.36 573.6,869.36 567.6,877.36 555.6,877.36" fill="#C8C2B6" fill-opacity="0.8"/>
<polygon points="683.58,874.16 693.58,866.16 705.58,872.16 699.58,880.16 687.58,880.16" fill="#C8C2B6" fill-opacity="0.8"/>
<polygon points="797.8,876.96 807.8,868.96 819.8,874.96 813.8,882.96 801.8,882.96" fill="#C8C2B6" fill-opacity="0.8"/>
<polygon points="929.78,867.75 939.78,859.75 951.78,865.75 945.78,873.75 933.78,873.75" fill="#C8C2B6" fill-opacity="0.8"/>
<polygon points="1061.76,870.55 1071.76,862.55 1083.76,868.55 1077.76,876.55 1065.76,876.55" fill="#C8C2B6" fill-opacity="0.8"/>
<rect x="0" y="1020" width="1600" height="180" fill="#C8C2B6"/>
<rect x="0" y="1020" width="1600" height="180" fill="#242722" fill-opacity="0.06"/>
<rect x="0" y="1020" width="1600" height="6" fill="#242722" fill-opacity="0.22"/>
<rect x="0" y="1090" width="1600" height="2" fill="#242722" fill-opacity="0.1"/>
<rect x="0" y="1090" width="1600" height="110" fill="#C8C2B6"/>
<rect x="0" y="1090" width="1600" height="110" fill="#242722" fill-opacity="0.12"/>
<line x1="200" y1="1026" x2="200" y2="1090" stroke="#242722" stroke-width="1" stroke-opacity="0.12"/>
<line x1="520" y1="1026" x2="520" y2="1090" stroke="#242722" stroke-width="1" stroke-opacity="0.12"/>
<line x1="840" y1="1026" x2="840" y2="1090" stroke="#242722" stroke-width="1" stroke-opacity="0.12"/>
<line x1="1160" y1="1026" x2="1160" y2="1090" stroke="#242722" stroke-width="1" stroke-opacity="0.12"/>
<line x1="1480" y1="1026" x2="1480" y2="1090" stroke="#242722" stroke-width="1" stroke-opacity="0.12"/>
<rect x="0" y="1020" width="1600" height="14" fill="#242722" fill-opacity="0.1"/>
<polygon points="300,1054 309,1054 439,104.4 430,104.4" fill="#242722" fill-opacity="0.12"/>
<polygon points="362,1054 371,1054 501,104.4 492,104.4" fill="#242722" fill-opacity="0.12"/>
<polygon points="316.41,985.24 369.41,985.24 369.41,993.24 316.41,993.24" fill="#242722" fill-opacity="0.12"/>
<polygon points="324.48,926.31 377.48,926.31 377.48,934.31 324.48,934.31" fill="#242722" fill-opacity="0.12"/>
<polygon points="332.55,867.38 385.55,867.38 385.55,875.38 332.55,875.38" fill="#242722" fill-opacity="0.12"/>
<polygon points="340.62,808.44 393.62,808.44 393.62,816.44 340.62,816.44" fill="#242722" fill-opacity="0.12"/>
<polygon points="348.68,749.51 401.68,749.51 401.68,757.51 348.68,757.51" fill="#242722" fill-opacity="0.12"/>
<polygon points="356.75,690.58 409.75,690.58 409.75,698.58 356.75,698.58" fill="#242722" fill-opacity="0.12"/>
<polygon points="364.82,631.64 417.82,631.64 417.82,639.64 364.82,639.64" fill="#242722" fill-opacity="0.12"/>
<polygon points="372.89,572.71 425.89,572.71 425.89,580.71 372.89,580.71" fill="#242722" fill-opacity="0.12"/>
<polygon points="380.96,513.77 433.96,513.77 433.96,521.77 380.96,521.77" fill="#242722" fill-opacity="0.12"/>
<polygon points="389.02,454.84 442.02,454.84 442.02,462.84 389.02,462.84" fill="#242722" fill-opacity="0.12"/>
<polygon points="397.09,395.91 450.09,395.91 450.09,403.91 397.09,403.91" fill="#242722" fill-opacity="0.12"/>
<polygon points="405.16,336.97 458.16,336.97 458.16,344.97 405.16,344.97" fill="#242722" fill-opacity="0.12"/>
<polygon points="413.23,278.04 466.23,278.04 466.23,286.04 413.23,286.04" fill="#242722" fill-opacity="0.12"/>
<polygon points="421.3,219.1 474.3,219.1 474.3,227.1 421.3,227.1" fill="#242722" fill-opacity="0.12"/>
<polygon points="429.36,160.17 482.36,160.17 482.36,168.17 429.36,168.17" fill="#242722" fill-opacity="0.12"/>
<polygon points="286,1054 295,1054 425,96 416,96" fill="#242722"/>
<polygon points="348,1054 357,1054 487,96 478,96" fill="#242722"/>
<polygon points="303.41,980.64 358.41,980.64 358.41,988.64 303.41,988.64" fill="#242722"/>
<polygon points="311.48,921.18 366.48,921.18 366.48,929.18 311.48,929.18" fill="#242722"/>
<polygon points="319.55,861.73 374.55,861.73 374.55,869.73 319.55,869.73" fill="#242722"/>
<polygon points="327.62,802.27 382.62,802.27 382.62,810.27 327.62,810.27" fill="#242722"/>
<polygon points="335.68,742.82 390.68,742.82 390.68,750.82 335.68,750.82" fill="#242722"/>
<polygon points="343.75,683.36 398.75,683.36 398.75,691.36 343.75,691.36" fill="#242722"/>
<polygon points="351.82,623.91 406.82,623.91 406.82,631.91 351.82,631.91" fill="#242722"/>
<polygon points="359.89,564.45 414.89,564.45 414.89,572.45 359.89,572.45" fill="#242722"/>
<polygon points="367.96,505 422.96,505 422.96,513 367.96,513" fill="#242722"/>
<polygon points="376.02,445.54 431.02,445.54 431.02,453.54 376.02,453.54" fill="#242722"/>
<polygon points="384.09,386.08 439.09,386.08 439.09,394.08 384.09,394.08" fill="#242722"/>
<polygon points="392.16,326.63 447.16,326.63 447.16,334.63 392.16,334.63" fill="#242722"/>
<polygon points="400.23,267.17 455.23,267.17 455.23,275.17 400.23,275.17" fill="#242722"/>
<polygon points="408.3,207.72 463.3,207.72 463.3,215.72 408.3,215.72" fill="#242722"/>
<polygon points="416.36,148.26 471.36,148.26 471.36,156.26 416.36,156.26" fill="#242722"/>
<polygon points="1124,1062 1340,1052 1354,1066 1128,1072" fill="#242722" fill-opacity="0.14"/>
<rect x="1120" y="950" width="150" height="112" fill="#D5C2A3"/>
<polygon points="1120,950 1160,928 1310,928 1270,950" fill="#D5C2A3"/>
<polygon points="1120,950 1160,928 1310,928 1270,950" fill="#F3F0E8" fill-opacity="0.32"/>
<polygon points="1270,950 1310,928 1310,1040 1270,1062" fill="#D5C2A3"/>
<polygon points="1270,950 1310,928 1310,1040 1270,1062" fill="#242722" fill-opacity="0.24"/>
<line x1="1128" y1="1006" x2="1262" y2="1006" stroke="#242722" stroke-width="1" stroke-opacity="0.06"/>
<polygon points="1120,1040 1138,1062 1120,1062" fill="#C8C2B6"/>
<rect x="1120" y="1056" width="150" height="6" fill="#242722" fill-opacity="0.1"/>
<polygon points="1334,1066 1502,1056 1516,1070 1338,1076" fill="#242722" fill-opacity="0.14"/>
<rect x="1330" y="988" width="110" height="78" fill="#D5C2A3"/>
<polygon points="1330,988 1362,970.4 1472,970.4 1440,988" fill="#D5C2A3"/>
<polygon points="1330,988 1362,970.4 1472,970.4 1440,988" fill="#F3F0E8" fill-opacity="0.32"/>
<polygon points="1440,988 1472,970.4 1472,1048.4 1440,1066" fill="#D5C2A3"/>
<polygon points="1440,988 1472,970.4 1472,1048.4 1440,1066" fill="#242722" fill-opacity="0.24"/>
<line x1="1338" y1="1027" x2="1432" y2="1027" stroke="#242722" stroke-width="1" stroke-opacity="0.06"/>
<polygon points="1330,1044 1348,1066 1330,1066" fill="#C8C2B6"/>
<rect x="1330" y="1060" width="110" height="6" fill="#242722" fill-opacity="0.1"/>
<polygon points="860,1064 940,1064 996,1056 1010,1066 950,1074 856,1072" fill="#242722" fill-opacity="0.14"/>
<polygon points="838,914 962,914 946,1064 854,1064" fill="#8C4F3D"/>
<polygon points="910,914 962,914 946,1064 910,1064" fill="#242722" fill-opacity="0.18"/>
<polygon points="838,914 866,914 874,1064 854,1064" fill="#F3F0E8" fill-opacity="0.12"/>
<rect x="834" y="908" width="132" height="12" fill="#8C4F3D"/>
<rect x="834" y="908" width="132" height="5" fill="#F3F0E8" fill-opacity="0.25"/>
<rect x="834" y="920" width="132" height="6" fill="#242722" fill-opacity="0.2"/>
<polygon points="838,912 844,912 888,840 882,836" fill="#242722"/>
<polygon points="962,912 956,912 912,840 918,836" fill="#242722"/>
<rect x="882" y="834" width="36" height="6" fill="#242722"/>
</svg>
